<svg xmlns="http://www.w3.org/2000/svg" xmlns:xlink="http://www.w3.org/1999/xlink" viewBox="0 0 26 26" fill="#313131">
  <path d="M13 0.15625C5.914063 0.15625 0.15625 5.914063 0.15625 13C0.15625 20.085938 5.914063 25.84375 13 25.84375C20.085938 25.84375 25.84375 20.085938 25.84375 13C25.84375 5.914063 20.085938 0.15625 13 0.15625 Z M 13 1.78125C15.117188 1.78125 17.09375 2.359375 18.78125 3.375C18.792969 3.382813 18.800781 3.398438 18.8125 3.40625C18.832031 3.425781 18.855469 3.449219 18.875 3.46875C18.894531 3.492188 18.902344 3.484375 18.9375 3.5C18.949219 3.554688 18.972656 3.59375 19 3.625C19.011719 3.636719 19.015625 3.664063 19.03125 3.6875C19.054688 3.71875 19.085938 3.753906 19.4375 3.9375C19.394531 3.917969 19.34375 3.933594 19.3125 3.96875C19.296875 3.988281 19.28125 4.007813 19.28125 4.03125C19.242188 4.011719 19.195313 3.988281 19.15625 3.96875C19.105469 3.949219 19.082031 3.929688 19.03125 3.90625C19.023438 3.902344 19.007813 3.910156 19 3.90625L18.78125 3.875C18.765625 3.871094 18.734375 3.867188 18.71875 3.875C18.710938 3.878906 18.695313 3.871094 18.6875 3.875L18.5625 3.84375L18.4375 3.78125C18.429688 3.777344 18.382813 3.75 18.375 3.75L18.1875 3.71875C18.179688 3.71875 18.164063 3.71875 18.15625 3.71875L18.03125 3.71875C18.011719 3.71875 17.984375 3.742188 17.96875 3.75C17.949219 3.761719 17.945313 3.761719 17.9375 3.78125L17.90625 3.84375L17.8125 3.875C17.789063 3.878906 17.765625 3.886719 17.75 3.90625C17.742188 3.917969 17.722656 3.953125 17.71875 3.96875L17.6875 4C17.671875 4.015625 17.660156 4.042969 17.65625 4.0625L17.625 4.125C17.613281 4.136719 17.597656 4.171875 17.59375 4.1875C17.589844 4.199219 17.589844 4.207031 17.59375 4.21875L17.59375 4.28125L17.5625 4.65625C17.5625 4.664063 17.558594 4.675781 17.5625 4.6875C17.554688 4.691406 17.539063 4.710938 17.53125 4.71875L17.34375 5C17.316406 5.03125 17.289063 5.058594 17.3125 5.09375L17.625 5.5625L17.65625 5.65625C17.664063 5.671875 17.675781 5.675781 17.6875 5.6875C17.757813 5.746094 17.855469 5.765625 17.9375 5.78125C17.949219 5.78125 17.957031 5.777344 17.96875 5.78125L17.96875 5.9375C17.964844 5.964844 17.980469 6.011719 18 6.03125L18.0625 6.125C18.066406 6.136719 18.085938 6.144531 18.09375 6.15625L17.9375 6.21875C17.925781 6.222656 17.917969 6.210938 17.90625 6.21875C17.902344 6.222656 17.878906 6.246094 17.875 6.25L17.8125 6.34375C17.792969 6.34375 17.769531 6.359375 17.75 6.375L17.6875 6.4375C17.679688 6.445313 17.660156 6.460938 17.65625 6.46875C17.652344 6.472656 17.660156 6.496094 17.65625 6.5L17.625 6.5625L17.625 6.46875C17.625 6.464844 17.625 6.441406 17.625 6.4375C17.617188 6.390625 17.621094 6.390625 17.0625 5.875L17.0625 5.75C17.0625 5.742188 17.0625 5.695313 17.0625 5.6875L17.03125 5.65625C17.027344 5.648438 17.035156 5.632813 17.03125 5.625C17.007813 5.585938 16.996094 5.585938 16.8125 5.5L16.8125 5.4375C16.785156 5.386719 16.722656 5.378906 16.65625 5.375L16.53125 5.375C16.433594 5.382813 16.425781 5.398438 16.34375 5.8125C16.34375 5.828125 16.335938 5.863281 16.34375 5.875C16.347656 5.882813 16.339844 5.898438 16.34375 5.90625C16.335938 5.90625 16.289063 5.933594 16.28125 5.9375C16.257813 5.941406 16.238281 5.949219 16.21875 5.96875C16.210938 5.972656 16.195313 5.964844 16.1875 5.96875C16.175781 5.976563 16.183594 5.988281 16.15625 6C16.148438 6.003906 16.128906 5.996094 16.125 6C16.066406 6 16.019531 6.039063 15.9375 6.125C15.921875 6.148438 15.929688 6.191406 15.9375 6.21875L15.96875 6.34375C15.980469 6.375 15.992188 6.378906 16.03125 6.40625C16.023438 6.414063 16.003906 6.433594 16 6.4375C15.992188 6.449219 16.003906 6.457031 16 6.46875L15.96875 6.625C15.964844 6.660156 15.976563 6.722656 16 6.75C16.019531 6.773438 16.058594 6.792969 16.125 6.78125L16.40625 6.71875C16.414063 6.714844 16.433594 6.722656 16.4375 6.71875L16.65625 6.625C16.660156 6.621094 16.683594 6.628906 16.6875 6.625C16.691406 6.628906 16.683594 6.652344 16.6875 6.65625L16.65625 6.65625C16.648438 6.664063 16.632813 6.675781 16.625 6.6875C16.621094 6.691406 16.628906 6.710938 16.625 6.71875L16.5625 6.84375C16.554688 6.878906 16.570313 6.9375 16.59375 6.96875C16.617188 7 16.664063 7.027344 16.71875 7.03125L16.8125 7.03125L16.78125 7.125C16.777344 7.136719 16.78125 7.144531 16.78125 7.15625C16.78125 7.164063 16.78125 7.179688 16.78125 7.1875C16.789063 7.226563 16.773438 7.273438 16.78125 7.3125C16.789063 7.328125 16.832031 7.394531 16.84375 7.40625C16.863281 7.425781 16.878906 7.4375 16.90625 7.4375C16.96875 7.441406 17.011719 7.4375 17.0625 7.4375L17.28125 7.59375L17.25 7.65625C17.25 7.664063 17.25 7.710938 17.25 7.71875L17.28125 7.84375C17.191406 7.828125 17.175781 7.796875 16.8125 7.75C16.78125 7.742188 16.75 7.742188 16.625 7.71875C16.609375 7.714844 16.605469 7.714844 16.59375 7.71875L16.53125 7.75C16.503906 7.757813 16.480469 7.78125 16.46875 7.8125C16.460938 7.824219 16.476563 7.828125 16.46875 7.84375L16.40625 7.84375C16.382813 7.847656 16.359375 7.886719 16.34375 7.90625C16.339844 7.910156 16.320313 7.898438 16.3125 7.90625C16.292969 7.925781 16.277344 7.972656 16.28125 8C16.300781 8.125 16.324219 8.308594 16.34375 8.4375L16.28125 8.78125C16.28125 8.789063 16.28125 8.804688 16.28125 8.8125C16.285156 8.824219 16.277344 8.84375 16.28125 8.875C16.285156 8.898438 16.292969 8.921875 16.3125 8.9375L16.375 9L16.46875 9.25C16.492188 9.3125 16.558594 9.355469 16.625 9.34375L16.8125 9.3125L16.90625 9.375L16.28125 9.90625C16.269531 9.914063 16.253906 9.957031 16.25 9.96875L16.15625 10.40625L15.71875 10.6875L15.53125 10.78125C15.507813 10.792969 15.480469 10.820313 15.46875 10.84375C15.386719 11.027344 15.242188 11.242188 15.125 11.4375C15.074219 11.523438 15.050781 11.597656 15 11.6875L14.75 12.1875C14.742188 12.203125 14.746094 12.234375 14.75 12.25C14.753906 12.308594 14.75 12.3125 14.75 12.34375C14.75 12.359375 14.742188 12.394531 14.75 12.40625C14.75 12.410156 14.777344 12.433594 14.78125 12.4375L14.84375 12.53125L14.90625 13L14.59375 13.59375C14.574219 13.628906 14.59375 13.6875 14.625 13.71875L14.75 13.84375C14.75 13.902344 14.753906 13.96875 14.75 14.03125C14.746094 14.042969 14.75 14.050781 14.75 14.0625L14.75 14.09375C14.75 14.113281 14.738281 14.140625 14.75 14.15625L14.84375 14.3125L15 14.46875L15.3125 14.90625C15.320313 14.917969 15.335938 14.929688 15.34375 14.9375L15.53125 15.09375L15.65625 15.28125C15.660156 15.285156 15.683594 15.277344 15.6875 15.28125L15.75 15.3125C15.753906 15.316406 15.746094 15.339844 15.75 15.34375L15.78125 15.375C15.789063 15.382813 15.800781 15.371094 15.8125 15.375L16.25 15.625L16.40625 15.75C16.421875 15.761719 16.417969 15.777344 16.4375 15.78125C16.441406 15.78125 16.460938 15.78125 16.46875 15.78125C16.539063 15.78125 16.632813 15.746094 16.6875 15.71875L17 15.6875L17.5 15.6875C17.503906 15.6875 17.527344 15.65625 17.53125 15.65625L18 15.625C18.011719 15.628906 18.019531 15.628906 18.03125 15.625L18.09375 15.625C18.105469 15.621094 18.117188 15.601563 18.125 15.59375L18.3125 15.5L18.5 15.5L18.625 15.46875L18.71875 15.75C18.734375 15.792969 18.800781 15.820313 18.84375 15.8125L19.1875 15.8125L19.3125 16L19.34375 16.0625L19.0625 16.625C19.050781 16.648438 19.050781 16.664063 19.0625 16.6875L19.3125 17.28125L19.34375 17.40625L19.34375 17.53125C19.34375 17.535156 19.34375 17.5625 19.34375 17.5625C19.34375 17.578125 19.367188 17.582031 19.375 17.59375C19.378906 17.609375 19.402344 17.640625 19.40625 17.65625C19.414063 17.671875 19.402344 17.695313 19.40625 17.71875L19.4375 17.78125L19.375 17.96875L19.25 18.65625L19.03125 18.84375L18.9375 19.09375L18.875 19.125C18.867188 19.128906 18.820313 19.148438 18.8125 19.15625C18.796875 19.167969 18.789063 19.171875 18.78125 19.1875C18.726563 19.320313 18.671875 19.445313 18.625 19.5625C18.621094 19.574219 18.625 19.613281 18.625 19.625C18.621094 19.636719 18.621094 19.644531 18.625 19.65625L18.6875 19.90625C18.578125 20.3125 18.453125 20.75 18.34375 21.0625C18.339844 21.066406 18.3125 21.089844 18.3125 21.09375L18.3125 21.1875L18.21875 21.40625C18.179688 21.488281 18.164063 21.519531 18.09375 21.65625L18 21.75C17.941406 21.816406 17.882813 21.917969 17.84375 22L17.8125 22.0625C17.796875 22.085938 17.800781 22.097656 17.8125 22.125C17.824219 22.152344 17.847656 22.175781 17.875 22.1875C17.9375 22.210938 17.988281 22.21875 18.03125 22.21875C18.042969 22.21875 18.050781 22.222656 18.0625 22.21875C18.097656 22.203125 18.148438 22.179688 18.1875 22.15625L18.1875 22.125C18.351563 22.09375 18.566406 22.070313 18.75 22.03125L19.09375 21.875C19.101563 21.871094 19.121094 21.847656 19.125 21.84375L19.625 21.5C19.628906 21.496094 19.652344 21.503906 19.65625 21.5L19.65625 21.46875C19.71875 21.425781 19.867188 21.34375 19.90625 21.3125L20.15625 21.03125L20.28125 20.90625L20.34375 20.875L20.40625 20.875C20.417969 20.875 20.425781 20.878906 20.4375 20.875C20.492188 20.851563 20.527344 20.785156 20.5625 20.75L20.875 20.4375C20.882813 20.429688 20.902344 20.414063 20.90625 20.40625L21.09375 20.0625L21.125 20.03125L21.15625 20.03125C21.171875 20.03125 21.175781 20.007813 21.1875 20C21.242188 19.976563 21.28125 19.945313 21.3125 19.90625L21.375 19.84375C21.515625 19.746094 21.683594 19.605469 21.78125 19.53125L21.8125 19.53125C21.796875 19.550781 21.796875 19.570313 21.78125 19.59375C21.773438 19.601563 21.753906 19.648438 21.75 19.65625L21.625 19.875L21.375 20.09375C21.355469 20.117188 21.355469 20.117188 21.03125 20.59375C21.007813 20.636719 21.003906 20.691406 21 20.75C20.996094 20.789063 21 20.824219 21.03125 20.84375C18.996094 22.929688 16.152344 24.21875 13 24.21875C12.46875 24.21875 11.949219 24.164063 11.4375 24.09375C11.449219 24.070313 11.445313 24.023438 11.4375 24C11.453125 24.003906 11.484375 24.003906 11.5 24C11.515625 23.996094 11.519531 23.976563 11.53125 23.96875C11.550781 23.953125 11.589844 23.933594 11.59375 23.90625C11.597656 23.878906 11.582031 23.835938 11.5625 23.8125L11.46875 23.71875C11.449219 23.699219 11.453125 23.675781 11.34375 23.625C11.332031 23.621094 11.324219 23.625 11.3125 23.625C11.296875 23.621094 11.265625 23.648438 11.25 23.65625C11.230469 23.664063 11.203125 23.648438 11.1875 23.65625C11.148438 23.679688 11.140625 23.738281 11.15625 23.78125C11.160156 23.800781 11.171875 23.8125 11.1875 23.84375L11.03125 23.8125C11.023438 23.808594 11.011719 23.785156 11 23.78125C10.992188 23.777344 10.976563 23.78125 10.96875 23.78125L10.9375 23.75C10.929688 23.742188 10.914063 23.722656 10.90625 23.71875L10.78125 23.65625L10.65625 23.46875C10.652344 23.464844 10.628906 23.4375 10.625 23.4375C10.601563 23.414063 10.585938 23.402344 10.5625 23.375C10.550781 23.363281 10.546875 23.351563 10.53125 23.34375L10.40625 23.3125C10.40625 23.289063 10.390625 23.269531 10.375 23.25C10.277344 23.136719 10.183594 23.015625 10.09375 22.90625C10.085938 22.894531 10.074219 22.878906 10.0625 22.875L10.03125 22.875C10.054688 22.84375 10.082031 22.785156 10.0625 22.75C10.054688 22.734375 10.039063 22.726563 10.03125 22.71875L10.15625 22.625C10.175781 22.609375 10.183594 22.585938 10.1875 22.5625C10.191406 22.550781 10.191406 22.542969 10.1875 22.53125L10.15625 22.3125C10.152344 22.292969 10.171875 22.265625 10.15625 22.25C10.140625 22.234375 10.109375 22.230469 10.09375 22.21875C10.113281 22.210938 10.144531 22.175781 10.15625 22.15625C10.164063 22.148438 10.183594 22.136719 10.1875 22.125L10.21875 21.96875L10.25 21.9375C10.261719 21.925781 10.246094 21.921875 10.25 21.90625L10.3125 21.6875C10.320313 21.675781 10.339844 21.636719 10.34375 21.625C10.347656 21.613281 10.34375 21.605469 10.34375 21.59375L10.34375 21.5C10.371094 21.472656 10.390625 21.410156 10.375 21.375L10.1875 20.875C10.414063 20.75 10.691406 20.613281 10.90625 20.5C10.933594 20.484375 10.933594 20.46875 10.9375 20.4375L10.96875 20.28125C11.003906 20.050781 11.027344 19.773438 11.0625 19.5625C11.066406 19.550781 11.066406 19.542969 11.0625 19.53125L10.9375 18.9375L11 18.875L11.09375 18.84375C11.105469 18.839844 11.113281 18.820313 11.125 18.8125L11.15625 18.78125L11.53125 18.09375C11.539063 18.082031 11.558594 18.042969 11.5625 18.03125C11.5625 18.019531 11.566406 18.007813 11.5625 18L11.4375 17.46875C11.429688 17.441406 11.402344 17.417969 11.375 17.40625C11.09375 17.261719 10.742188 17.085938 10.4375 16.9375C10.433594 16.933594 10.410156 16.910156 10.40625 16.90625L9.625 16.8125L9.375 16.71875L9.0625 16.5C9.058594 16.496094 9.039063 16.472656 9.03125 16.46875L8.96875 16.4375C8.984375 16.410156 8.984375 16.371094 8.96875 16.34375C8.960938 16.328125 8.945313 16.292969 8.9375 16.28125C8.917969 16.257813 8.902344 16.242188 8.875 16.25L8.84375 16.25L8.625 16.0625L8.34375 15.65625C8.339844 15.640625 8.324219 15.636719 8.3125 15.625L8.28125 15.59375C8.269531 15.582031 8.265625 15.566406 8.25 15.5625L7.78125 15.34375L7.625 15.21875C7.605469 15.203125 7.589844 15.214844 7.5625 15.21875L7.25 15.25L6.9375 14.90625L6.96875 14.875C7.003906 14.859375 7.027344 14.847656 7.03125 14.8125C7.039063 14.738281 7.035156 14.671875 7.03125 14.625L7.125 14.53125C7.144531 14.511719 7.15625 14.496094 7.15625 14.46875L7.15625 14.40625C7.15625 14.351563 7.113281 14.316406 7.0625 14.3125C6.933594 14.304688 6.824219 14.3125 6.71875 14.3125C6.71875 14.304688 6.71875 14.285156 6.71875 14.28125C6.71875 14.261719 6.726563 14.242188 6.6875 14.125C6.726563 14.101563 6.75 14.078125 6.75 14.03125C6.75 14.011719 6.746094 14.007813 6.6875 13.84375C6.683594 13.816406 6.679688 13.761719 6.65625 13.6875C6.671875 13.679688 6.675781 13.675781 6.6875 13.65625C6.71875 13.601563 6.710938 13.570313 6.65625 13.40625C6.652344 13.398438 6.660156 13.382813 6.65625 13.375C6.664063 13.351563 6.664063 13.335938 6.65625 13.3125C6.707031 13.292969 6.746094 13.246094 6.75 13.1875C6.75 13.167969 6.742188 13.171875 6.6875 13C6.664063 12.957031 6.625 12.917969 6.59375 12.90625C6.597656 12.867188 6.585938 12.839844 6.5625 12.8125C6.539063 12.785156 6.511719 12.753906 6.46875 12.75L6.4375 12.75C6.425781 12.703125 6.375 12.671875 6.3125 12.65625C6.226563 12.632813 6.132813 12.613281 6.03125 12.59375C5.980469 12.585938 5.933594 12.566406 5.90625 12.5625C5.890625 12.558594 5.859375 12.558594 5.84375 12.5625C5.808594 12.570313 5.769531 12.597656 5.75 12.625C5.710938 12.597656 5.691406 12.558594 5.65625 12.53125L5.5625 12.46875C5.542969 12.449219 5.496094 12.429688 5.46875 12.4375C5.425781 12.441406 5.367188 12.460938 5.34375 12.5L5.0625 12.34375L4.9375 12.28125C4.921875 12.269531 4.910156 12.257813 4.875 12.25C4.859375 12.246094 4.828125 12.246094 4.8125 12.25C4.867188 12.234375 4.902344 12.195313 4.90625 12.15625C4.914063 12.113281 4.898438 12.089844 4.8125 11.875C4.789063 11.816406 4.742188 11.796875 4.6875 11.8125C4.664063 11.820313 4.625 11.828125 4.59375 11.875C4.574219 11.910156 4.550781 11.957031 4.53125 12L4.5 12.03125C4.394531 11.957031 4.300781 11.890625 4.1875 11.8125C4.027344 11.703125 3.855469 11.566406 3.71875 11.46875C3.703125 11.457031 3.671875 11.46875 3.65625 11.46875C3.644531 11.46875 3.632813 11.464844 3.625 11.46875L3.34375 11.53125C3.335938 11.535156 3.320313 11.527344 3.3125 11.53125C3.261719 11.550781 3.261719 11.566406 3.125 11.875C3.109375 11.859375 3.078125 11.851563 3.0625 11.84375C3.046875 11.839844 3.046875 11.808594 3.03125 11.8125L2.5625 11.90625C2.523438 11.910156 2.511719 11.929688 2.5 11.96875L2.375 12.34375L2.25 12.375L2.125 12.03125L2.25 11.34375L2.34375 11.03125L2.4375 10.875C2.550781 10.699219 2.671875 10.5 2.78125 10.34375L2.9375 10.34375L3.15625 10.5625C3.1875 10.59375 3.242188 10.585938 3.28125 10.5625C3.371094 10.511719 3.414063 10.402344 3.4375 10.3125L3.71875 10.40625L3.6875 11.21875C3.683594 11.257813 3.6875 11.296875 3.71875 11.3125C3.804688 11.355469 3.863281 11.34375 3.90625 11.34375C3.929688 11.34375 3.984375 11.328125 4 11.3125L4.03125 11.3125L4.0625 11.4375C4.074219 11.472656 4.101563 11.515625 4.1875 11.53125L4.3125 11.53125C4.316406 11.53125 4.339844 11.53125 4.34375 11.53125C4.402344 11.523438 4.425781 11.488281 4.4375 11.4375C4.449219 11.402344 4.453125 11.40625 4.40625 11.15625C4.390625 11.09375 4.34375 11.03125 4.28125 11.03125L4.1875 11.03125L4.28125 10.78125C4.304688 10.613281 4.3125 10.445313 4.34375 10.28125L4.59375 9.875L4.625 9.875C4.640625 9.875 4.640625 9.882813 4.65625 9.875L4.9375 9.6875C5.105469 9.570313 5.289063 9.445313 5.4375 9.34375C5.449219 9.335938 5.460938 9.324219 5.46875 9.3125C5.496094 9.273438 5.496094 9.242188 5.5 9.21875C5.523438 9.105469 5.566406 9.015625 5.59375 8.90625C5.601563 8.910156 5.617188 8.898438 5.625 8.90625C5.664063 8.9375 5.714844 8.941406 5.75 8.90625L6.15625 8.46875C6.164063 8.460938 6.183594 8.476563 6.1875 8.46875L6.25 8.375L6.6875 8.3125C6.710938 8.308594 6.765625 8.300781 6.78125 8.28125L6.90625 8.15625C6.929688 8.128906 6.917969 8.066406 6.90625 8.03125L7 7.90625L7.09375 7.90625C7.105469 7.90625 7.117188 7.878906 7.125 7.875C7.128906 7.875 7.152344 7.878906 7.15625 7.875L7.46875 7.71875L7.46875 7.8125C7.460938 7.839844 7.449219 7.851563 7.46875 7.875L7.5 7.90625C7.527344 7.9375 7.589844 7.953125 7.625 7.9375C7.785156 7.875 7.972656 7.820313 8.15625 7.75L8.34375 7.65625C8.359375 7.652344 8.394531 7.636719 8.40625 7.625L8.4375 7.59375L8.5625 7.59375C8.609375 7.589844 8.617188 7.566406 8.75 7.46875C8.761719 7.457031 8.777344 7.449219 8.78125 7.4375C8.808594 7.378906 8.789063 7.324219 8.75 7.28125L8.78125 7.15625C8.785156 7.128906 8.769531 7.085938 8.75 7.0625C8.726563 7.035156 8.679688 7.003906 8.625 7C8.566406 7.003906 8.574219 7.003906 8.28125 7.3125L8.21875 7.25C8.230469 7.210938 8.242188 7.164063 8.25 7.125C8.273438 7.125 8.296875 7.109375 8.3125 7.09375L8.4375 6.96875C8.460938 6.949219 8.472656 6.875 8.46875 6.84375C8.464844 6.820313 8.453125 6.796875 8.4375 6.78125L8.90625 6.78125C8.886719 6.792969 8.847656 6.820313 8.84375 6.875C8.839844 6.90625 8.828125 6.914063 8.84375 6.9375L8.8125 7.03125C8.796875 7.058594 8.796875 7.128906 8.8125 7.15625C8.839844 7.214844 8.835938 7.199219 9.125 7.25L9.15625 7.3125C9.167969 7.328125 9.207031 7.371094 9.28125 7.375L9.375 7.375C9.402344 7.371094 9.410156 7.363281 9.4375 7.34375C9.457031 7.359375 9.496094 7.367188 9.53125 7.375L9.625 7.375C9.667969 7.367188 9.679688 7.355469 9.875 7.21875C9.886719 7.207031 9.898438 7.195313 9.90625 7.15625C9.910156 7.132813 9.933594 7.097656 9.9375 7.0625C9.9375 7.007813 9.917969 6.992188 9.875 6.96875L9.875 6.9375C9.886719 6.910156 9.914063 6.867188 9.90625 6.84375C9.890625 6.808594 9.859375 6.785156 9.78125 6.75L9.9375 6.59375C9.976563 6.558594 9.988281 6.519531 9.96875 6.46875C9.957031 6.441406 9.9375 6.417969 9.90625 6.40625L10.03125 6.25C10.046875 6.226563 10.039063 6.183594 10.03125 6.15625C10.019531 6.125 10.003906 6.101563 9.96875 6.09375L9.75 6.0625C9.757813 6.054688 9.777344 6.039063 9.78125 6.03125C9.808594 5.953125 9.828125 5.867188 9.84375 5.8125C9.851563 5.769531 9.816406 5.710938 9.78125 5.6875L9.75 5.65625L9.78125 5.5625C9.828125 5.265625 9.871094 5.136719 9.875 5.125C9.882813 5.082031 9.847656 5.023438 9.8125 5C9.851563 4.984375 9.851563 4.964844 9.9375 4.8125C9.945313 4.816406 9.960938 4.808594 9.96875 4.8125C9.976563 4.8125 9.992188 4.84375 10 4.84375L10.0625 4.84375C10.121094 4.839844 10.128906 4.820313 10.375 4.5625C10.394531 4.574219 10.421875 4.59375 10.4375 4.59375C10.488281 4.59375 10.503906 4.589844 10.90625 4.375C10.914063 4.371094 10.933594 4.347656 10.9375 4.34375C10.957031 4.328125 10.964844 4.304688 10.96875 4.28125C10.976563 4.230469 10.972656 4.238281 10.75 3.96875L10.875 3.84375C10.910156 3.777344 10.902344 3.746094 10.6875 3.4375C10.679688 3.425781 10.664063 3.445313 10.65625 3.4375C10.648438 3.429688 10.632813 3.410156 10.625 3.40625C10.652344 3.386719 10.679688 3.359375 10.75 3.28125C10.753906 3.277344 10.746094 3.253906 10.75 3.25C10.765625 3.257813 10.796875 3.253906 10.8125 3.25C10.910156 3.230469 11.007813 3.183594 11.09375 3.125C11.117188 3.109375 11.136719 3.074219 11.15625 3.0625L11.1875 3.0625C11.195313 3.0625 11.210938 3.066406 11.21875 3.0625L11.375 3.03125C11.390625 3.023438 11.421875 3.019531 11.4375 3C11.4375 3.015625 11.460938 3.015625 11.46875 3.03125C11.460938 3.054688 11.445313 3.070313 11.4375 3.09375C11.433594 3.105469 11.4375 3.144531 11.4375 3.15625C11.4375 3.167969 11.433594 3.179688 11.4375 3.1875L11.46875 3.25C11.476563 3.273438 11.511719 3.300781 11.53125 3.3125C11.546875 3.320313 11.574219 3.3125 11.59375 3.3125C11.6875 3.316406 11.773438 3.316406 11.84375 3.3125L11.9375 3.34375L11.9375 3.40625L11.875 3.59375C11.867188 3.609375 11.871094 3.671875 11.875 3.6875C11.878906 3.707031 11.890625 3.703125 11.90625 3.71875C11.894531 3.742188 11.894531 3.785156 11.90625 3.8125C11.914063 3.832031 11.925781 3.855469 11.9375 3.875L11.9375 3.90625C11.945313 3.917969 11.960938 3.929688 11.96875 3.9375L11.8125 3.9375C11.761719 3.945313 11.78125 3.941406 11.5625 4.125C11.550781 4.136719 11.539063 4.171875 11.53125 4.1875C11.527344 4.195313 11.5 4.179688 11.5 4.1875L11.46875 4.40625C11.464844 4.421875 11.464844 4.421875 11.46875 4.4375C11.476563 4.457031 11.519531 4.484375 11.53125 4.5C11.53125 4.503906 11.5 4.527344 11.5 4.53125L11.46875 4.53125C11.460938 4.535156 11.445313 4.558594 11.4375 4.5625C11.425781 4.574219 11.386719 4.585938 11.375 4.625C11.371094 4.644531 11.371094 4.667969 11.375 4.6875L11.5 5.125C11.503906 5.144531 11.515625 5.140625 11.53125 5.15625C11.550781 5.171875 11.578125 5.179688 11.59375 5.1875C11.605469 5.191406 11.613281 5.21875 11.625 5.21875L11.71875 5.21875L11.78125 5.3125C11.789063 5.324219 11.800781 5.335938 11.8125 5.34375C11.84375 5.367188 11.890625 5.386719 11.9375 5.375L12.15625 5.34375C12.167969 5.339844 12.175781 5.320313 12.1875 5.3125L12.34375 5.1875C12.484375 5.042969 12.621094 4.855469 12.75 4.71875L13.0625 4.625C13.070313 4.625 13.089844 4.597656 13.09375 4.59375L13.15625 4.5625L13.1875 4.59375C13.195313 4.597656 13.210938 4.59375 13.21875 4.59375C13.269531 4.59375 13.300781 4.5625 13.46875 4.4375L13.78125 4.28125L13.9375 4.3125C13.945313 4.316406 13.960938 4.316406 13.96875 4.3125L14 4.3125C14.191406 4.242188 14.464844 4.136719 14.65625 4.0625C14.695313 4.0625 14.734375 4.035156 14.75 4L14.78125 3.9375C14.804688 3.890625 14.824219 3.820313 14.84375 3.78125C14.851563 3.765625 14.878906 3.769531 14.875 3.75C14.871094 3.722656 14.863281 3.707031 14.84375 3.6875C14.867188 3.671875 14.871094 3.621094 14.875 3.59375L14.9375 3.28125C14.941406 3.265625 14.945313 3.238281 14.9375 3.21875C14.949219 3.195313 14.949219 3.183594 14.9375 3.15625C14.90625 3.089844 14.875 2.996094 14.84375 2.9375C14.863281 2.929688 14.863281 2.925781 14.875 2.90625L14.9375 2.9375C14.96875 2.949219 15.003906 2.929688 15.03125 2.90625L15.09375 2.84375C15.113281 2.824219 15.125 2.808594 15.125 2.78125L15.125 2.75C15.125 2.730469 15.136719 2.703125 15.125 2.6875C15.066406 2.605469 14.960938 2.582031 14.875 2.5625C14.847656 2.554688 14.820313 2.574219 14.78125 2.5625C14.777344 2.5625 14.753906 2.5625 14.75 2.5625C14.714844 2.5625 14.691406 2.550781 14.65625 2.5625C14.652344 2.542969 14.640625 2.546875 14.625 2.53125C14.605469 2.511719 14.582031 2.464844 14.5625 2.4375C14.542969 2.398438 14.519531 2.351563 14.46875 2.3125C14.382813 2.242188 14.285156 2.234375 14.1875 2.21875C14.019531 2.199219 13.820313 2.203125 13.65625 2.21875C13.59375 2.222656 13.527344 2.222656 13.46875 2.21875C13.402344 2.214844 13.335938 2.210938 13.28125 2.21875C13.246094 2.222656 13.214844 2.238281 13.1875 2.25C13.164063 2.238281 13.101563 2.242188 13.0625 2.25C12.949219 2.277344 12.855469 2.355469 12.75 2.4375C12.726563 2.457031 12.679688 2.480469 12.65625 2.5C12.640625 2.46875 12.597656 2.4375 12.5625 2.4375C12.46875 2.433594 12.464844 2.4375 12.4375 2.40625C12.429688 2.394531 12.441406 2.359375 12.4375 2.34375C12.421875 2.292969 12.371094 2.210938 12.25 2.1875C12.246094 2.1875 12.226563 2.1875 12.21875 2.1875C12.1875 2.1875 12.148438 2.210938 12.125 2.21875C12.128906 2.21875 12.125 2.191406 12.125 2.1875C12.125 2.140625 12.125 2.042969 11.96875 2C11.949219 1.996094 11.929688 2 11.90625 2C11.882813 2 11.777344 1.992188 11.71875 2.03125C11.664063 2.066406 11.65625 2.109375 11.65625 2.125C11.640625 2.136719 11.648438 2.148438 11.625 2.15625C11.605469 2.164063 11.550781 2.171875 11.53125 2.1875C11.496094 2.210938 11.464844 2.253906 11.4375 2.28125C11.410156 2.3125 11.386719 2.351563 11.34375 2.34375C11.316406 2.332031 11.304688 2.332031 11.28125 2.34375C11.203125 2.378906 11.164063 2.421875 11.15625 2.46875C11.121094 2.503906 11.074219 2.570313 11.0625 2.625C11.046875 2.636719 11 2.636719 10.96875 2.65625L10.96875 2.53125C10.957031 2.480469 10.886719 2.433594 10.84375 2.4375C10.800781 2.441406 10.785156 2.484375 10.75 2.53125L10.5625 2.625C10.554688 2.628906 10.539063 2.648438 10.53125 2.65625L10.375 2.84375C10.351563 2.871094 10.328125 2.902344 10.34375 2.9375C10.34375 2.9375 10.34375 2.96875 10.34375 2.96875C10.324219 2.941406 10.316406 2.929688 10.21875 2.90625C10.21875 2.90625 10.21875 2.875 10.21875 2.875L10.3125 2.75C10.328125 2.722656 10.328125 2.6875 10.3125 2.65625C10.296875 2.621094 10.257813 2.597656 10.21875 2.59375C10.175781 2.597656 10.160156 2.574219 10 2.6875C9.992188 2.691406 9.972656 2.714844 9.96875 2.71875L9.90625 2.875C9.894531 2.867188 9.886719 2.847656 9.875 2.84375C9.886719 2.824219 9.875 2.800781 9.875 2.78125C9.871094 2.730469 9.847656 2.707031 9.78125 2.65625C9.761719 2.644531 9.742188 2.648438 9.71875 2.65625C9.699219 2.660156 9.671875 2.652344 9.59375 2.6875C9.535156 2.660156 9.460938 2.699219 9.4375 2.71875C9.417969 2.738281 9.390625 2.761719 9.375 2.78125C9.355469 2.742188 9.324219 2.714844 9.28125 2.71875L8.9375 2.75C8.933594 2.75 8.910156 2.746094 8.90625 2.75L8.6875 2.84375C8.632813 2.867188 8.621094 2.878906 8.5625 2.96875C8.550781 2.96875 8.542969 2.96875 8.53125 2.96875L8.34375 2.96875C8.335938 2.96875 8.320313 2.964844 8.3125 2.96875C8.308594 2.96875 8.285156 3 8.28125 3L7.90625 3.15625C7.898438 3.160156 7.882813 3.152344 7.875 3.15625L7.65625 3.3125C7.621094 3.335938 7.605469 3.375 7.59375 3.40625C7.582031 3.445313 7.59375 3.476563 7.625 3.5C7.613281 3.511719 7.601563 3.515625 7.59375 3.53125L7.5625 3.46875C7.554688 3.441406 7.527344 3.417969 7.5 3.40625C7.496094 3.394531 7.507813 3.386719 7.5 3.375C7.476563 3.34375 7.414063 3.328125 7.375 3.34375L7.3125 3.34375C8.984375 2.359375 10.914063 1.78125 13 1.78125 Z M 16.8125 2.6875L16.6875 2.71875C16.675781 2.722656 16.667969 2.710938 16.65625 2.71875L16.59375 2.75C16.582031 2.746094 16.546875 2.746094 16.53125 2.75C16.503906 2.753906 16.484375 2.769531 16.46875 2.78125L16.3125 2.78125C16.273438 2.78125 16.234375 2.777344 16.21875 2.8125C16.210938 2.828125 16.21875 2.859375 16.21875 2.875C16.21875 2.941406 16.222656 2.964844 16.375 3.0625C16.378906 3.066406 16.402344 3.058594 16.40625 3.0625L16.53125 3.125C16.554688 3.136719 16.601563 3.128906 16.625 3.125L16.6875 3.21875C16.71875 3.257813 16.714844 3.28125 17 3.375C17.011719 3.375 17.023438 3.378906 17.03125 3.375C17.0625 3.371094 17.082031 3.339844 17.09375 3.3125C17.109375 3.285156 17.136719 3.246094 17.125 3.21875L17.21875 3.21875C17.253906 3.210938 17.300781 3.191406 17.3125 3.15625C17.328125 3.117188 17.3125 3.058594 17.28125 3.03125C17.269531 3.023438 17.261719 3.019531 17.15625 2.96875C17.171875 2.925781 17.132813 2.898438 17.0625 2.78125C17.058594 2.773438 17.070313 2.757813 17.0625 2.75C17.03125 2.722656 17.007813 2.726563 16.875 2.6875C16.867188 2.683594 16.851563 2.6875 16.84375 2.6875C16.835938 2.6875 16.820313 2.6875 16.8125 2.6875 Z M 9.625 3.9375C9.664063 3.953125 9.730469 3.953125 9.78125 3.96875L9.625 4.09375C9.621094 4.097656 9.628906 4.121094 9.625 4.125L9.53125 4.21875L9.34375 4.21875 Z M 19.46875 3.9375C19.480469 3.941406 19.519531 3.9375 19.53125 3.9375C19.542969 3.9375 19.550781 3.941406 19.5625 3.9375L19.59375 3.9375C19.613281 3.949219 19.636719 3.957031 19.65625 3.96875C19.648438 3.984375 19.625 3.984375 19.625 4L19.625 4.0625 Z M 9.25 4.25C9.234375 4.261719 9.214844 4.265625 9.1875 4.28125C9.183594 4.285156 9.160156 4.308594 9.15625 4.3125L9.03125 4.4375C9.019531 4.457031 8.96875 4.507813 9 4.5625L8.90625 4.53125C8.898438 4.527344 8.882813 4.535156 8.875 4.53125L8.90625 4.34375C8.910156 4.332031 8.910156 4.324219 8.90625 4.3125 Z M 14.625 4.28125C14.59375 4.28125 14.550781 4.300781 14.34375 4.34375C14.300781 4.359375 14.292969 4.367188 14.28125 4.40625C14.269531 4.441406 14.285156 4.507813 14.3125 4.53125C14.347656 4.5625 14.394531 4.601563 14.4375 4.625L14.40625 4.6875C14.398438 4.710938 14.394531 4.757813 14.40625 4.78125C14.433594 4.839844 14.417969 4.855469 14.90625 5C14.914063 5.003906 14.929688 5 14.9375 5C14.972656 5 14.972656 5.011719 15.5 4.78125C15.558594 4.742188 15.570313 4.660156 15.5625 4.625C15.554688 4.597656 15.542969 4.570313 15.53125 4.53125C15.523438 4.515625 15.511719 4.511719 15.5 4.5C15.496094 4.496094 15.503906 4.472656 15.5 4.46875L15.28125 4.3125C15.261719 4.296875 15.207031 4.285156 15.15625 4.28125L14.78125 4.34375L14.6875 4.3125C14.671875 4.304688 14.640625 4.28125 14.625 4.28125 Z M 8.0625 4.5625L8.25 4.5625L8.21875 4.59375C8.210938 4.644531 8.265625 4.675781 8.3125 4.6875C8.375 4.707031 8.402344 4.71875 8.4375 4.71875C8.449219 4.71875 8.488281 4.691406 8.5 4.6875L8.59375 4.6875C8.523438 4.753906 8.464844 4.828125 8.40625 4.90625C8.367188 4.957031 8.316406 5.023438 8.28125 5.0625L8.0625 5.125C8.042969 5.132813 8.042969 5.136719 8.03125 5.15625L7.78125 5.53125L7.3125 5.6875C7.289063 5.695313 7.261719 5.726563 7.25 5.75C7.242188 5.765625 7.257813 5.765625 7.25 5.78125L7.21875 5.78125L7.09375 5.5625L7.03125 5.3125C7.023438 5.285156 6.996094 5.261719 6.96875 5.25C6.988281 5.234375 6.996094 5.214844 7 5.1875L7.03125 5.125L7.34375 4.90625C7.453125 4.863281 7.5625 4.800781 7.6875 4.75L7.96875 4.65625C7.980469 4.652344 7.988281 4.632813 8 4.625C8.007813 4.617188 8.023438 4.601563 8.03125 4.59375C8.050781 4.578125 8.058594 4.585938 8.0625 4.5625 Z M 9.375 4.59375L9.40625 4.625L9.375 4.65625C9.3125 4.757813 9.359375 4.777344 9.6875 5L9.34375 5.15625L9.40625 5.0625C9.441406 5.027344 9.441406 4.976563 9.40625 4.9375L9.1875 4.6875C9.179688 4.683594 9.164063 4.660156 9.15625 4.65625L9.0625 4.625C9.121094 4.652344 9.15625 4.628906 9.375 4.59375 Z M 19.03125 5.34375L19.1875 5.40625C19.207031 5.414063 19.230469 5.445313 19.25 5.4375C19.269531 5.5 19.285156 5.519531 19.3125 5.5625C19.316406 5.574219 19.335938 5.585938 19.34375 5.59375C19.355469 5.601563 19.363281 5.617188 19.375 5.625C19.367188 5.644531 19.367188 5.667969 19.375 5.6875L19.4375 5.875C19.363281 5.855469 19.265625 5.886719 19.1875 5.90625C19.167969 5.914063 19.144531 5.933594 19.125 5.9375C19.117188 5.9375 19.097656 5.933594 19.09375 5.9375L18.875 6.03125L18.875 6C18.917969 5.984375 18.941406 5.953125 18.9375 5.90625L18.9375 5.6875L18.96875 5.59375L19 5.375C19.003906 5.363281 19.03125 5.351563 19.03125 5.34375 Z M 21.375 7.65625C21.382813 7.667969 21.394531 7.675781 21.40625 7.6875C21.613281 7.875 21.605469 7.875 21.65625 7.875C21.675781 7.875 21.671875 7.886719 21.6875 7.875C21.707031 7.867188 21.738281 7.859375 21.75 7.84375C21.765625 7.820313 21.800781 7.800781 21.8125 7.78125L22.15625 8L22.28125 8.09375L22.15625 8.125C22.015625 8.027344 22.007813 8.03125 21.96875 8.03125C21.957031 8.03125 21.917969 8.027344 21.90625 8.03125C21.839844 8.054688 21.761719 8.097656 21.6875 8.125C21.625 8.148438 21.558594 8.167969 21.5 8.1875L21.4375 8.1875L21.3125 8.0625C21.308594 8.058594 21.316406 8.039063 21.3125 8.03125C21.320313 8.015625 21.34375 7.996094 21.34375 7.96875L21.3125 7.90625C21.328125 7.890625 21.339844 7.863281 21.34375 7.84375C21.351563 7.824219 21.34375 7.800781 21.34375 7.78125 Z M 18.78125 8.09375C18.777344 8.097656 18.785156 8.121094 18.78125 8.125C18.769531 8.140625 18.785156 8.136719 18.78125 8.15625C18.777344 8.164063 18.769531 8.1875 18.78125 8.25C18.792969 8.285156 18.804688 8.339844 18.8125 8.375C18.820313 8.394531 18.832031 8.425781 18.84375 8.4375C18.839844 8.457031 18.839844 8.46875 18.84375 8.5L18.84375 8.5625C18.859375 8.625 18.890625 8.683594 18.90625 8.75C18.925781 8.832031 18.972656 8.867188 19 8.875C19.015625 8.878906 19.046875 8.878906 19.0625 8.875C19.066406 8.875 19.089844 8.847656 19.09375 8.84375L19.21875 8.8125C19.269531 8.796875 19.3125 8.742188 19.3125 8.6875C19.3125 8.667969 19.320313 8.65625 19.25 8.4375C19.234375 8.398438 19.199219 8.359375 19.15625 8.34375C19.164063 8.320313 19.179688 8.316406 19.1875 8.28125L19.34375 8.4375C19.351563 8.445313 19.398438 8.464844 19.40625 8.46875L19.75 8.65625L19.8125 8.6875L19.84375 8.78125L19.59375 8.71875C19.574219 8.714844 19.519531 8.742188 19.5 8.75C19.460938 8.769531 19.433594 8.800781 19.4375 8.84375C19.441406 8.875 19.460938 8.925781 19.46875 8.96875C19.472656 8.984375 19.457031 8.988281 19.46875 9C19.539063 9.089844 19.652344 9.15625 19.75 9.21875C19.761719 9.226563 19.773438 9.242188 19.78125 9.25C19.71875 9.261719 19.6875 9.304688 19.6875 9.375C19.675781 9.328125 19.664063 9.289063 19.65625 9.25C19.652344 9.226563 19.640625 9.203125 19.625 9.1875L19.53125 9.125L19.375 9.03125C19.351563 9.019531 19.335938 9 19.3125 9C19.300781 9 19.261719 8.996094 19.25 9L19.09375 9.0625L18.1875 9.125C18.179688 9.125 18.164063 9.121094 18.15625 9.125L17.5625 9.34375L17.34375 9.34375C17.351563 9.335938 17.339844 9.320313 17.34375 9.3125L17.5625 9.28125C17.574219 9.28125 17.585938 9.285156 17.59375 9.28125L17.625 9.28125C17.636719 9.277344 17.648438 9.257813 17.65625 9.25L17.84375 9.09375L17.875 9.0625C17.902344 9.03125 17.9375 8.996094 17.96875 8.96875C17.996094 8.941406 18.011719 8.882813 18 8.84375L17.90625 8.625L17.9375 8.5625L18.03125 8.53125L18.0625 8.53125C18.074219 8.53125 18.082031 8.535156 18.09375 8.53125C18.097656 8.53125 18.121094 8.5 18.125 8.5L18.21875 8.4375C18.25 8.421875 18.277344 8.40625 18.28125 8.375L18.3125 8.1875L18.3125 8.15625L18.59375 8.21875C18.613281 8.21875 18.640625 8.199219 18.65625 8.1875 Z M 20.28125 8.6875L20.3125 8.6875C20.335938 8.6875 20.359375 8.699219 20.375 8.6875L20.40625 8.71875C20.414063 8.730469 20.398438 8.742188 20.40625 8.75C20.414063 8.757813 20.421875 8.769531 20.4375 8.78125C20.453125 8.792969 20.480469 8.808594 20.5 8.8125L20.625 8.96875C20.640625 8.988281 20.664063 8.996094 20.6875 9C20.699219 9.003906 20.707031 8.996094 20.71875 9C20.71875 9.003906 20.714844 9.027344 20.71875 9.03125C20.742188 9.070313 20.785156 9.109375 20.8125 9.15625L20.84375 9.21875C20.851563 9.234375 20.859375 9.269531 20.875 9.28125L20.90625 9.28125C20.921875 9.292969 20.949219 9.3125 20.96875 9.3125L21.0625 9.3125C21.058594 9.324219 21.0625 9.328125 21.0625 9.34375C21.070313 9.367188 21.066406 9.355469 21.125 9.46875C21.160156 9.527344 21.152344 9.542969 21.5625 9.625C21.679688 9.613281 21.699219 9.515625 21.6875 9.34375L21.71875 9.375C21.742188 9.398438 21.777344 9.414063 21.8125 9.40625L22 9.34375C22.015625 9.339844 22.019531 9.351563 22.03125 9.34375L22.0625 9.34375C22.046875 9.359375 22.035156 9.390625 22.03125 9.40625C22.023438 9.453125 22.023438 9.496094 22.0625 9.53125C22.074219 9.539063 22.101563 9.539063 22.25 9.625C22.257813 9.628906 22.242188 9.652344 22.25 9.65625L22.28125 9.65625C22.300781 9.660156 22.324219 9.632813 22.34375 9.625C22.359375 9.617188 22.363281 9.605469 22.375 9.59375L22.4375 9.53125C22.449219 9.570313 22.457031 9.617188 22.46875 9.65625L22.4375 10.0625L22.1875 9.96875C22.144531 9.957031 22.117188 9.996094 22.09375 10.03125L22 10.125L21.625 9.96875C21.613281 9.964844 21.605469 9.964844 21.59375 9.96875C21.535156 9.972656 21.484375 9.96875 21.4375 9.96875L21.40625 9.9375C21.390625 9.914063 21.371094 9.878906 21.34375 9.875C21.214844 9.855469 21.128906 9.875 21.03125 9.875C21.019531 9.875 21.011719 9.871094 21 9.875C20.992188 9.878906 20.972656 9.871094 20.96875 9.875L20.875 9.9375C20.851563 9.953125 20.816406 9.972656 20.8125 10L20.78125 10.1875L20.34375 9.9375C20.339844 9.933594 20.316406 9.941406 20.3125 9.9375L19.84375 9.8125L19.71875 9.75C19.730469 9.730469 19.71875 9.710938 19.71875 9.6875C19.710938 9.589844 19.699219 9.519531 19.6875 9.4375C19.699219 9.472656 19.730469 9.492188 19.75 9.53125C19.761719 9.550781 19.769531 9.59375 19.78125 9.625C19.816406 9.6875 19.859375 9.683594 19.875 9.6875C19.886719 9.691406 19.894531 9.691406 19.90625 9.6875C19.96875 9.679688 19.992188 9.65625 20.09375 9.5C20.101563 9.488281 20.089844 9.480469 20.09375 9.46875C20.097656 9.453125 20.097656 9.453125 20.09375 9.4375C20.089844 9.414063 20.105469 9.390625 20.09375 9.375C20.140625 9.355469 20.152344 9.304688 20.15625 9.25L20.15625 9.09375C20.183594 9.085938 20.207031 9.058594 20.21875 9.03125L20.3125 8.84375C20.328125 8.816406 20.328125 8.777344 20.3125 8.75 Z M 21.28125 8.96875C21.296875 8.988281 21.335938 8.996094 21.34375 9L21.46875 9.21875C21.414063 9.214844 21.335938 9.191406 21.28125 9.1875L21.28125 9.15625C21.300781 9.136719 21.3125 9.121094 21.3125 9.09375C21.3125 9.039063 21.289063 9.003906 21.28125 8.96875 Z M 3.125 12.03125C3.132813 12.039063 3.144531 12.054688 3.15625 12.0625L3.15625 12.09375C3.144531 12.132813 3.136719 12.171875 3.15625 12.28125C3.171875 12.328125 3.179688 12.320313 3.21875 12.34375C3.242188 12.359375 3.285156 12.351563 3.3125 12.34375C3.320313 12.339844 3.335938 12.347656 3.34375 12.34375C3.332031 12.457031 3.382813 12.566406 3.46875 12.625C3.507813 12.652344 3.546875 12.6875 3.59375 12.6875C3.730469 12.6875 3.824219 12.5625 3.84375 12.40625C3.851563 12.351563 3.859375 12.296875 3.84375 12.25L3.90625 12.3125C3.90625 12.332031 3.878906 12.324219 3.875 12.34375L3.875 12.4375C3.882813 12.492188 3.921875 12.539063 3.96875 12.5625L3.90625 12.5625C3.890625 12.558594 3.886719 12.5625 3.875 12.5625C3.828125 12.574219 3.808594 12.574219 3.71875 12.6875C3.695313 12.71875 3.679688 12.773438 3.6875 12.8125C3.695313 12.847656 3.726563 12.859375 3.75 12.875C3.800781 12.917969 3.847656 12.96875 3.90625 13L3.96875 13.03125C3.980469 13.039063 4.019531 13.027344 4.03125 13.03125L4.03125 13.0625C4.042969 13.066406 4.050781 13.0625 4.0625 13.0625C4.070313 13.058594 4.085938 13.035156 4.09375 13.03125L4.28125 12.96875C4.316406 12.945313 4.339844 12.898438 4.34375 12.84375L4.34375 12.78125C4.390625 12.8125 4.496094 12.828125 4.78125 12.875C4.789063 12.875 4.804688 12.875 4.8125 12.875C4.816406 12.875 4.839844 12.875 4.84375 12.875C4.851563 12.875 4.867188 12.875 4.875 12.875L5.34375 12.875C5.367188 12.910156 5.417969 12.933594 5.46875 12.9375L5.78125 12.9375C5.816406 12.933594 5.851563 12.925781 5.875 12.90625C5.894531 12.921875 5.914063 12.945313 5.9375 12.96875C5.964844 12.988281 6 13 6.03125 13C6.039063 13 6.054688 13.003906 6.0625 13L6.125 12.96875L6.125 13C6.132813 13.050781 6.167969 13.105469 6.21875 13.125C6.207031 13.144531 6.191406 13.160156 6.1875 13.1875C6.1875 13.25 6.21875 13.3125 6.21875 13.375L6.21875 13.4375C6.230469 13.511719 6.28125 13.550781 6.3125 13.5625L6.3125 13.625C6.300781 13.644531 6.28125 13.660156 6.28125 13.6875C6.28125 13.742188 6.277344 13.816406 6.28125 13.875C6.285156 13.914063 6.3125 13.945313 6.34375 13.96875C6.34375 14 6.339844 14.03125 6.34375 14.0625C6.328125 14.085938 6.316406 14.121094 6.3125 14.15625C6.316406 14.199219 6.308594 14.238281 6.3125 14.28125L6.3125 14.3125C6.320313 14.367188 6.367188 14.425781 6.4375 14.4375L6.4375 14.5L6.25 14.34375C6.242188 14.335938 6.226563 14.316406 6.21875 14.3125L5.875 14.25C5.859375 14.246094 5.828125 14.246094 5.8125 14.25L5.78125 14.25L5.71875 14.28125L5.3125 14.1875L5.09375 13.90625C5.085938 13.894531 5.074219 13.878906 5.0625 13.875L5.03125 13.875C4.996094 13.855469 4.9375 13.84375 4.90625 13.875L4.84375 13.96875L4.78125 13.9375C4.753906 13.921875 4.742188 13.890625 4.71875 13.875C4.6875 13.859375 4.65625 13.859375 4.625 13.875L4.15625 14.125C4.148438 14.128906 4.132813 14.148438 4.125 14.15625C4.117188 14.164063 4.097656 14.175781 4.09375 14.1875L3.96875 14.53125L3.8125 14.4375C3.800781 14.429688 3.796875 14.410156 3.78125 14.40625L3.75 14.40625C3.742188 14.40625 3.722656 14.40625 3.71875 14.40625L3.4375 14.46875L3.34375 14.28125L3.375 13.4375C3.378906 13.417969 3.375 13.394531 3.375 13.375C3.375 13.355469 3.382813 13.359375 3.375 13.34375C3.328125 13.261719 3.25 13.167969 3.1875 13.09375L3.15625 13.0625C3.148438 13.054688 3.132813 13.039063 3.125 13.03125C3.113281 13.023438 3.105469 13.003906 3.09375 13L2.84375 12.96875L2.84375 12.75 Z M 4.34375 12.53125C4.34375 12.539063 4.34375 12.558594 4.34375 12.5625C4.320313 12.59375 4.3125 12.621094 4.3125 12.65625C4.296875 12.636719 4.269531 12.628906 4.25 12.625C4.179688 12.605469 4.113281 12.578125 4.03125 12.5625 Z M 23.53125 12.78125C23.585938 12.902344 23.640625 13.015625 23.6875 13.125L23.6875 13.375C23.675781 13.355469 23.648438 13.351563 23.625 13.34375L23.5625 12.9375L23.5625 12.90625 Z M 1.78125 13.21875L1.84375 13.28125C1.875 13.3125 1.929688 13.332031 1.96875 13.3125L2.09375 13.21875L2.1875 13.46875C2.1875 13.472656 2.1875 13.496094 2.1875 13.5C2.191406 13.511719 2.210938 13.523438 2.21875 13.53125L2.28125 13.625C2.285156 13.632813 2.273438 13.652344 2.28125 13.65625L2.40625 13.78125C2.414063 13.785156 2.460938 13.808594 2.46875 13.8125L2.625 13.90625L2.875 14.65625C2.878906 14.660156 2.871094 14.683594 2.875 14.6875L2.9375 14.75C2.964844 14.78125 3.023438 14.800781 3.0625 14.78125L3.09375 14.75L3.1875 14.875C3.195313 14.898438 3.195313 14.925781 3.21875 14.9375C3.238281 14.949219 3.265625 14.960938 3.28125 14.96875C3.292969 14.972656 3.304688 14.964844 3.3125 14.96875L3.4375 15.15625C3.460938 15.191406 3.519531 15.207031 3.5625 15.1875L3.6875 15.125C3.707031 15.117188 3.738281 15.082031 3.75 15.0625L3.78125 15.15625C3.820313 15.429688 3.882813 15.695313 3.9375 15.96875L3.90625 16.15625L3.84375 16.34375L3.78125 16.75C3.777344 16.761719 3.777344 16.769531 3.78125 16.78125C3.78125 16.785156 3.78125 16.808594 3.78125 16.8125C3.804688 16.90625 3.816406 17.003906 3.84375 17.09375L3.875 17.125C3.878906 17.140625 3.863281 17.144531 3.875 17.15625C3.882813 17.164063 3.914063 17.167969 3.9375 17.1875L3.90625 17.21875C3.894531 17.238281 3.902344 17.257813 3.90625 17.28125C3.90625 17.289063 3.933594 17.304688 3.9375 17.3125L4.125 17.75C4.128906 17.757813 4.117188 17.773438 4.125 17.78125L4.53125 18.125L4.71875 18.40625C4.722656 18.414063 4.746094 18.433594 4.75 18.4375C4.757813 18.449219 4.75 18.46875 4.75 18.46875C5.046875 18.859375 5.484375 19.382813 5.5625 19.4375L6.125 19.71875C6.175781 19.75 6.230469 19.773438 6.40625 19.875L6.46875 19.9375C6.683594 20.265625 6.992188 20.738281 7.25 21.09375C7.820313 21.816406 7.960938 22.023438 8.6875 22.75C8.691406 22.753906 8.714844 22.746094 8.71875 22.75L8.90625 22.90625C8.933594 22.933594 8.972656 22.941406 9 22.96875L9.03125 23.03125C9.039063 23.039063 9.054688 23.027344 9.0625 23.03125C9.101563 23.054688 9.144531 23.082031 9.1875 23.09375C9.195313 23.128906 9.214844 23.136719 9.375 23.25C9.402344 23.269531 9.4375 23.28125 9.46875 23.28125L9.53125 23.375C9.542969 23.390625 9.542969 23.398438 9.5625 23.40625L9.6875 23.46875L9.71875 23.5C9.726563 23.511719 9.738281 23.523438 9.75 23.53125C9.804688 23.566406 9.875 23.574219 9.9375 23.59375L9.96875 23.625C9.976563 23.65625 10.007813 23.671875 10.03125 23.6875C10.042969 23.699219 10.054688 23.714844 10.0625 23.71875C10.082031 23.730469 10.097656 23.742188 10.125 23.75L10.21875 23.8125C10.234375 23.820313 10.265625 23.84375 10.28125 23.84375L10.34375 23.84375C10.347656 23.847656 10.371094 23.871094 10.375 23.875L10.4375 23.875C10.449219 23.898438 10.476563 23.925781 10.5 23.9375C5.574219 22.816406 1.882813 18.464844 1.78125 13.21875 Z M 24.15625 13.90625C24.152344 13.945313 24.160156 13.992188 24.15625 14.03125L24.125 14.0625C24.074219 14.097656 24.019531 14.121094 23.96875 14.15625L23.9375 14.125L23.9375 14.0625C23.949219 14.058594 23.960938 14.035156 23.96875 14.03125C23.976563 14.027344 23.996094 14.035156 24 14.03125 Z M 18.78125 16.125C18.636719 16.144531 18.527344 16.246094 18.5 16.375C18.476563 16.480469 18.507813 16.566406 18.59375 16.625C18.640625 16.65625 18.691406 16.6875 18.75 16.6875C18.894531 16.6875 19.027344 16.570313 19.0625 16.4375C19.085938 16.363281 19.078125 16.28125 19.03125 16.21875C18.984375 16.152344 18.910156 16.125 18.8125 16.125C18.808594 16.125 18.785156 16.125 18.78125 16.125 Z M 23.75 16.1875C23.507813 17.011719 23.195313 17.796875 22.78125 18.53125C22.765625 18.542969 22.777344 18.546875 22.6875 18.65625C22.703125 18.59375 22.652344 18.546875 22.625 18.53125C22.617188 18.527344 22.601563 18.503906 22.59375 18.5C22.5625 18.492188 22.53125 18.5 22.5 18.5L22.46875 18.5L22.5 18.4375C22.515625 18.40625 22.515625 18.378906 22.53125 18.34375L22.5625 18.28125C22.570313 18.269531 22.59375 18.265625 22.59375 18.25L22.59375 18.1875L22.71875 17.78125L22.75 17.65625L22.875 17.4375L22.9375 17.375C22.945313 17.367188 22.964844 17.355469 22.96875 17.34375C23.011719 17.242188 23.015625 17.179688 23.03125 17.125L23.15625 16.90625L23.25 16.8125C23.265625 16.804688 23.269531 16.796875 23.28125 16.78125L23.65625 16.21875 Z M 22.3125 18.90625C22.335938 18.921875 22.351563 18.902344 22.375 18.90625C22.382813 18.910156 22.398438 18.90625 22.40625 18.90625C22.421875 18.902344 22.457031 18.917969 22.46875 18.90625C22.421875 18.964844 22.34375 19.015625 22.28125 19.09375L22.125 19.1875Z" fill="#313131" />
</svg>