<svg xmlns="http://www.w3.org/2000/svg" xmlns:xlink="http://www.w3.org/1999/xlink" viewBox="0 0 24 24" fill="#666666">
  <path d="M12 2C6.477 2 2 6.477 2 12C2 17.523 6.477 22 12 22C17.523 22 22 17.523 22 12C22 6.477 17.523 2 12 2 z M 12 4C16.418 4 20 7.582 20 12C20 13.597292 19.525404 15.081108 18.71875 16.330078L17.949219 15.734375C16.397219 14.537375 13.537 14 12 14C10.463 14 7.6017813 14.537375 6.0507812 15.734375L5.28125 16.332031C4.4740429 15.082774 4 13.597888 4 12C4 7.582 7.582 4 12 4 z M 12 5.75C10.208 5.75 8.75 7.208 8.75 9C8.75 10.792 10.208 12.25 12 12.25C13.792 12.25 15.25 10.792 15.25 9C15.25 7.208 13.792 5.75 12 5.75 z M 12 7.75C12.689 7.75 13.25 8.311 13.25 9C13.25 9.689 12.689 10.25 12 10.25C11.311 10.25 10.75 9.689 10.75 9C10.75 8.311 11.311 7.75 12 7.75 z M 12 16C15.100714 16 16.768095 17.168477 17.548828 17.753906C16.109984 19.141834 14.156852 20 12 20C9.843148 20 7.8900164 19.141834 6.4511719 17.753906C7.231905 17.168477 8.899286 16 12 16 z M 6.0546875 17.339844C6.1756559 17.473131 6.297271 17.605851 6.4257812 17.730469C6.2971141 17.605286 6.1747276 17.473381 6.0546875 17.339844 z M 17.912109 17.375C17.802435 17.495543 17.692936 17.616825 17.576172 17.730469C17.692621 17.617521 17.801457 17.494978 17.912109 17.375 z" fill="#666666" />
</svg>