<svg xmlns="http://www.w3.org/2000/svg" xmlns:xlink="http://www.w3.org/1999/xlink" viewBox="0 0 24 24" fill="#666666">
  <path d="M12 4C10.067 4 8.5 5.567 8.5 7.5C8.5 9.433 10.067 11 12 11C13.933 11 15.5 9.433 15.5 7.5C15.5 5.567 13.933 4 12 4 z M 12 6C12.827 6 13.5 6.673 13.5 7.5C13.5 8.327 12.827 9 12 9C11.173 9 10.5 8.327 10.5 7.5C10.5 6.673 11.173 6 12 6 z M 4.5 7C3.119 7 2 8.119 2 9.5C2 10.881 3.119 12 4.5 12C5.881 12 7 10.881 7 9.5C7 8.119 5.881 7 4.5 7 z M 19.5 7C18.119 7 17 8.119 17 9.5C17 10.881 18.119 12 19.5 12C20.881 12 22 10.881 22 9.5C22 8.119 20.881 7 19.5 7 z M 4.5 8.7226562C4.929 8.7226562 5.2773438 9.071 5.2773438 9.5C5.2773438 9.929 4.929 10.277344 4.5 10.277344C4.071 10.277344 3.7226562 9.929 3.7226562 9.5C3.7226562 9.071 4.071 8.7226562 4.5 8.7226562 z M 19.5 8.7226562C19.929 8.7226562 20.277344 9.071 20.277344 9.5C20.277344 9.929 19.929 10.277344 19.5 10.277344C19.071 10.277344 18.722656 9.929 18.722656 9.5C18.722656 9.071 19.071 8.7226562 19.5 8.7226562 z M 12 13C10.525268 13 8.1258302 13.468267 6.5546875 14.398438C5.9135338 14.155255 5.2112533 14 4.5 14C2.263 14 0 15.397641 0 16.931641L0 20L4.5 20L5 20L6 20L19 20L19.5 20L24 20L24 16.931641C24 15.397641 21.737 14 19.5 14C18.788747 14 18.086466 14.155255 17.445312 14.398438C15.87417 13.468267 13.474732 13 12 13 z M 12 15C14.134 15 16.622 15.961406 17 16.566406L17 18L7 18L7 16.566406C7.378 15.961406 9.866 15 12 15 z M 4.5 16C4.6979449 16 4.8766997 16.033966 5.0585938 16.0625C5.0214433 16.203432 5 16.349386 5 16.5L5 18L4.5 18L2 18L2 17.009766C2.184 16.689766 3.198 16 4.5 16 z M 19.5 16C20.802 16 21.816 16.689766 22 17.009766L22 18L19.5 18L19 18L19 16.5C19 16.349386 18.978557 16.203432 18.941406 16.0625C19.1233 16.033966 19.302055 16 19.5 16 z" fill="#666666" />
</svg>