<svg xmlns="http://www.w3.org/2000/svg" xmlns:xlink="http://www.w3.org/1999/xlink" viewBox="0 0 32 32" fill="#999999">
  <path d="M6 14C4.894531 14 4 14.894531 4 16C4 17.105469 4.894531 18 6 18C7.105469 18 8 17.105469 8 16C8 14.894531 7.105469 14 6 14 Z M 16 14C14.894531 14 14 14.894531 14 16C14 17.105469 14.894531 18 16 18C17.105469 18 18 17.105469 18 16C18 14.894531 17.105469 14 16 14 Z M 26 14C24.894531 14 24 14.894531 24 16C24 17.105469 24.894531 18 26 18C27.105469 18 28 17.105469 28 16C28 14.894531 27.105469 14 26 14Z" fill="#999999" />
</svg>