<svg xmlns="http://www.w3.org/2000/svg" xmlns:xlink="http://www.w3.org/1999/xlink" viewBox="0 0 30 30" fill="#313131">
  <path d="M21.289062 2C20.252063 2 19.333953 2.6605781 19.001953 3.6425781L18.507812 5.1035156L16.966797 5.1191406C15.928797 5.1321406 15.016266 5.8040156 14.697266 6.7910156C14.557474 7.2231 14.552223 7.6708309 14.652344 8.0917969C6.2063643 9.145214 2 19.839307 2 21.5C2 21.758 2.0662813 21.843125 2.2382812 21.953125C2.4102813 22.063125 2.6317344 22.062219 2.8027344 21.949219L4.7460938 20.683594C4.3960938 22.114594 4.0230156 24.536875 4.4160156 27.546875C4.4450156 27.763875 4.6043594 27.939328 4.8183594 27.986328C4.8553594 27.995328 4.8946406 28 4.9316406 28C5.1066406 28 5.2721406 27.911766 5.3691406 27.759766L8.5175781 22.808594C8.8085781 23.939594 9.3366719 25.556938 10.138672 26.460938C10.277672 26.617938 10.495359 26.675375 10.693359 26.609375C10.891359 26.542375 11.030875 26.362297 11.046875 26.154297C11.053468 26.057281 11.73541 17.446411 16.371094 13.396484C16.449083 13.612163 16.54641 13.822478 16.6875 14.013672C17.1425 14.631672 17.871719 15 18.636719 15C19.137719 15 19.61925 14.844734 20.03125 14.552734L21.289062 13.662109L22.546875 14.554688C22.958875 14.845688 23.442359 15 23.943359 15C24.709359 15 25.437578 14.630719 25.892578 14.011719C26.350578 13.388719 26.481047 12.605281 26.248047 11.863281L25.789062 10.392578L27.025391 9.4726562C27.858391 8.8516562 28.201859 7.7721094 27.880859 6.7871094C27.559859 5.8001094 26.646375 5.1301406 25.609375 5.1191406L24.070312 5.1015625L23.576172 3.640625C23.245172 2.659625 22.326063 2 21.289062 2 z M 21.289062 4C21.454062 4 21.617641 4.09325 21.681641 4.28125L22.630859 7.0859375L25.589844 7.1191406C25.986844 7.1231406 26.150031 7.6301875 25.832031 7.8671875L23.457031 9.6347656L24.339844 12.458984C24.429844 12.748984 24.201359 13 23.943359 13C23.863359 13 23.780125 12.975875 23.703125 12.921875L21.289062 11.210938L18.873047 12.921875C18.797047 12.975875 18.716719 13 18.636719 13C18.378719 13 18.148281 12.749937 18.238281 12.460938L19.121094 9.6347656L16.746094 7.8671875C16.428094 7.6311875 16.591281 7.1260938 16.988281 7.1210938L19.949219 7.0878906L20.896484 4.2832031C20.959484 4.0942031 21.125062 4 21.289062 4 z" fill="#313131" />
</svg>