<svg xmlns="http://www.w3.org/2000/svg" xmlns:xlink="http://www.w3.org/1999/xlink" viewBox="0 0 24 24" fill="#5E5E5E">
  <path d="M18 2C16.35499 2 15 3.3549904 15 5C15 5.1909529 15.021791 5.3771224 15.056641 5.5585938L7.921875 9.7207031C7.3985399 9.2778539 6.7320771 9 6 9C4.3549904 9 3 10.35499 3 12C3 13.64501 4.3549904 15 6 15C6.7320771 15 7.3985399 14.722146 7.921875 14.279297L15.056641 18.439453C15.021555 18.621514 15 18.808386 15 19C15 20.64501 16.35499 22 18 22C19.64501 22 21 20.64501 21 19C21 17.35499 19.64501 16 18 16C17.26748 16 16.601593 16.279328 16.078125 16.722656L8.9433594 12.558594C8.9782095 12.377122 9 12.190953 9 12C9 11.809047 8.9782095 11.622878 8.9433594 11.441406L16.078125 7.2792969C16.60146 7.7221461 17.267923 8 18 8C19.64501 8 21 6.6450096 21 5C21 3.3549904 19.64501 2 18 2 z M 18 4C18.564129 4 19 4.4358706 19 5C19 5.5641294 18.564129 6 18 6C17.435871 6 17 5.5641294 17 5C17 4.4358706 17.435871 4 18 4 z M 6 11C6.5641294 11 7 11.435871 7 12C7 12.564129 6.5641294 13 6 13C5.4358706 13 5 12.564129 5 12C5 11.435871 5.4358706 11 6 11 z M 18 18C18.564129 18 19 18.435871 19 19C19 19.564129 18.564129 20 18 20C17.435871 20 17 19.564129 17 19C17 18.435871 17.435871 18 18 18 z" fill="#5E5E5E" />
</svg>