<svg xmlns="http://www.w3.org/2000/svg" xmlns:xlink="http://www.w3.org/1999/xlink" viewBox="0 0 24 24" fill="#333232">
  <path d="M14.119141 1.9980469L9.8769531 2.0019531C9.3179531 2.0019531 8.7832969 2.2364375 8.4042969 2.6484375L7.1640625 4L4 4C2.9 4 2 4.9 2 6L2 18C2 19.1 2.9 20 4 20L20 20C21.1 20 22 19.1 22 18L22 6C22 4.9 21.1 4 20 4L16.841797 4L15.59375 2.6445312C15.21475 2.2325313 14.679141 1.9980469 14.119141 1.9980469 z M 12 7C14.8 7 17 9.2 17 12C17 14.8 14.8 17 12 17C9.2 17 7 14.8 7 12C7 9.2 9.2 7 12 7 z M 12 9 A 3 3 0 0 0 9 12 A 3 3 0 0 0 12 15 A 3 3 0 0 0 15 12 A 3 3 0 0 0 12 9 z" fill="#333232" />
</svg>