<svg xmlns="http://www.w3.org/2000/svg" xmlns:xlink="http://www.w3.org/1999/xlink" viewBox="0 0 50 50" fill="#999999">
  <path d="M19.453125 18C18.054688 18.03125 16.507813 18.382813 15.535156 19.0625C14.566406 19.738281 14.0625 20.558594 14.019531 21.53125L14.019531 21.546875C13.9375 22.152344 14.097656 22.832031 14.503906 23.585938C14.914063 24.339844 16.417969 24.941406 18.28125 25.578125L19.65625 26.09375C20.105469 26.230469 20.441406 26.371094 20.664063 26.515625C20.886719 26.660156 21 26.878906 21 27.171875C20.980469 27.527344 20.785156 27.753906 20.414063 27.859375C20.042969 27.964844 19.78125 28.011719 19.375 28C18.582031 28 17.863281 27.832031 17.21875 27.3125C17.0625 27.1875 16.910156 27.042969 16.765625 26.875C16.640625 26.738281 16.492188 26.613281 16.316406 26.5C16.144531 26.386719 15.933594 26.324219 15.675781 26.320313C15.421875 26.316406 15.128906 26.386719 14.796875 26.53125C14.460938 26.675781 14.230469 26.917969 14.097656 27.257813C13.96875 27.597656 13.96875 27.957031 14.09375 28.34375C14.25 28.769531 14.503906 29.152344 14.859375 29.492188C15.210938 29.832031 15.648438 30.121094 16.171875 30.359375C16.640625 30.570313 17.144531 30.726563 17.6875 30.835938C18.226563 30.945313 18.78125 31 19.34375 31C20.070313 31 20.769531 30.917969 21.4375 30.75C22.101563 30.582031 22.699219 30.347656 23.21875 30.046875C23.800781 29.691406 24.246094 29.269531 24.546875 28.773438C24.847656 28.28125 25 27.730469 25 27.125C25.007813 26.949219 24.976563 26.699219 24.90625 26.382813C24.832031 26.066406 24.671875 25.71875 24.421875 25.34375C23.828125 24.480469 22.835938 23.832031 21.453125 23.40625L19.3125 22.765625C18.957031 22.660156 18.472656 22.539063 18.257813 22.398438C18.042969 22.257813 17.9375 22.066406 17.9375 21.820313C17.9375 21.574219 18.070313 21.378906 18.335938 21.234375C18.601563 21.089844 19.167969 21.015625 19.640625 21.015625C20.179688 21.015625 20.84375 21.207031 21.375 21.59375L21.5 21.6875C21.714844 21.84375 21.921875 21.972656 22.109375 22.078125C22.292969 22.183594 22.496094 22.234375 22.71875 22.234375C23.007813 22.234375 23.382813 22.121094 23.84375 21.890625C23.957031 21.828125 24.074219 21.738281 24.191406 21.625C24.3125 21.507813 24.398438 21.363281 24.453125 21.1875C24.535156 20.851563 24.441406 20.472656 24.171875 20.046875C23.765625 19.386719 23.15625 18.882813 22.34375 18.53125C21.527344 18.175781 20.566406 18 19.453125 18 Z M 11 18C10.003906 18 9.183594 18.464844 9.03125 19.664063C8.859375 19.484375 8.609375 19.253906 8.429688 19.105469C8.199219 18.90625 7.847656 18.722656 7.382813 18.550781C6.917969 18.382813 6.320313 18.292969 5.589844 18.28125C3.980469 18.324219 2.65625 18.925781 1.609375 20.085938C0.570313 21.242188 0.03125 22.71875 0 24.507813C0.03125 26.359375 0.542969 27.875 1.53125 29.046875C2.519531 30.222656 3.800781 30.832031 5.367188 30.875L5.570313 30.875C6.398438 30.832031 7.144531 30.636719 7.8125 30.289063C8.21875 30.074219 8.675781 29.660156 9.023438 29.257813C9.128906 30.472656 9.96875 31 11 31C12.105469 31 13 30.375 13 29L13 20.078125C13 18.5 12.105469 18 11 18 Z M 27.886719 18C27.847656 18.003906 27.816406 18.011719 27.777344 18.015625C27.664063 18.023438 27.554688 18.035156 27.453125 18.058594C26.949219 18.144531 26.601563 18.34375 26.402344 18.65625C26.152344 18.96875 26 19.402344 26 20L26 29C26 29.484375 26.101563 29.855469 26.273438 30.152344C26.277344 30.15625 26.277344 30.164063 26.28125 30.171875C26.285156 30.191406 26.300781 30.203125 26.3125 30.21875C26.328125 30.246094 26.34375 30.277344 26.363281 30.300781C26.558594 30.640625 26.925781 30.855469 27.464844 30.945313C27.566406 30.964844 27.667969 30.976563 27.773438 30.984375C27.8125 30.988281 27.84375 30.996094 27.886719 31C27.902344 30.996094 27.910156 30.996094 27.925781 30.996094C27.953125 30.996094 27.972656 31 28 31C29.105469 31 30 30.46875 30 29L30 26.71875L32.808594 30.203125C32.976563 30.441406 33.183594 30.632813 33.433594 30.773438C33.679688 30.914063 33.945313 30.988281 34.230469 31L34.296875 31C34.707031 31 35.0625 30.878906 35.371094 30.640625C35.726563 30.339844 35.933594 29.976563 35.984375 29.554688C36.039063 29.132813 35.933594 28.738281 35.671875 28.375L32.058594 24.058594L35.15625 20.859375C35.441406 20.589844 35.617188 20.253906 35.679688 19.851563C35.742188 19.449219 35.582031 19.035156 35.203125 18.609375C35.109375 18.515625 34.992188 18.421875 34.855469 18.328125C34.53125 18.109375 34.207031 18 33.890625 18C33.503906 18 33.089844 18.1875 32.65625 18.5625C32.519531 18.675781 32.371094 18.824219 32.214844 19L30 21.472656L30 20C30 18.53125 29.105469 18 28 18C27.980469 18 27.960938 18.003906 27.941406 18.003906C27.921875 18.003906 27.90625 18 27.886719 18 Z M 40.9375 21.015625C40.71875 21.015625 40.488281 21.03125 40.238281 21.0625C40.011719 21.089844 39.828125 21.128906 39.683594 21.171875C39.566406 21.191406 39.464844 21.226563 39.371094 21.277344L39.09375 21.402344C38.722656 21.585938 38.417969 21.867188 38.179688 22.238281C37.992188 22.527344 37.863281 22.851563 37.792969 23.214844C37.761719 23.339844 37.734375 23.472656 37.714844 23.617188C37.714844 23.667969 37.703125 23.726563 37.683594 23.785156L37.171875 23.785156C37.0625 23.796875 36.949219 23.832031 36.847656 23.894531C36.746094 23.957031 36.675781 24.050781 36.644531 24.171875C36.605469 24.390625 36.574219 24.605469 36.554688 24.824219C36.554688 24.886719 36.566406 24.941406 36.585938 24.996094C36.65625 25.148438 36.78125 25.226563 36.957031 25.226563L37.4375 25.226563C37.476563 25.226563 37.503906 25.257813 37.484375 25.289063L36.976563 29.582031L36.929688 29.832031C36.929688 29.914063 36.917969 29.996094 36.898438 30.078125C36.886719 30.214844 36.867188 30.351563 36.839844 30.5C36.777344 30.847656 36.691406 31.152344 36.589844 31.410156C36.484375 31.640625 36.335938 31.835938 36.144531 32C35.953125 32.167969 35.734375 32.296875 35.488281 32.390625C35.34375 32.429688 35.210938 32.519531 35.085938 32.65625C34.960938 32.796875 34.902344 33.007813 34.914063 33.285156C34.933594 33.464844 34.988281 33.601563 35.078125 33.703125C35.167969 33.808594 35.265625 33.882813 35.378906 33.921875C35.578125 34.003906 35.78125 34.03125 36 34C36.394531 34.011719 36.878906 33.820313 37.453125 33.4375C38.03125 33.050781 38.457031 32.097656 38.722656 30.578125L39.371094 25.292969C39.378906 25.253906 39.402344 25.230469 39.433594 25.230469L40.660156 25.230469L40.542969 26.035156C40.542969 26.128906 40.53125 26.214844 40.511719 26.285156C40.511719 26.378906 40.5 26.464844 40.480469 26.546875L40.433594 26.90625L40.371094 27.292969L40.171875 28.78125C40.152344 28.871094 40.140625 28.957031 40.140625 29.027344L40.09375 29.289063C40.09375 29.359375 40.082031 29.4375 40.0625 29.519531C40.042969 29.601563 40.03125 29.691406 40.03125 29.785156L39.984375 30.0625C39.984375 30.148438 39.976563 30.230469 39.953125 30.3125C39.925781 30.570313 39.886719 30.839844 39.847656 31.117188L39.832031 31.226563C39.8125 31.289063 39.800781 31.355469 39.800781 31.425781C39.789063 31.542969 39.796875 31.644531 39.816406 31.734375C39.867188 31.910156 39.992188 32 40.1875 32L41.070313 32C41.152344 32 41.226563 31.992188 41.285156 31.96875C41.378906 31.949219 41.460938 31.898438 41.527344 31.828125C41.59375 31.757813 41.640625 31.667969 41.660156 31.566406C41.699219 31.371094 41.734375 31.179688 41.753906 30.992188L42.015625 29.148438L42.046875 28.886719C42.078125 28.699219 42.101563 28.515625 42.125 28.328125C42.152344 28.183594 42.175781 28.039063 42.1875 27.894531L42.21875 27.613281L42.25 27.445313L42.25 27.382813L42.34375 26.855469C42.34375 26.773438 42.351563 26.691406 42.371094 26.609375L42.386719 26.40625C42.398438 26.355469 42.417969 26.3125 42.449219 26.28125C42.582031 26.136719 42.738281 26 42.914063 25.871094C43.089844 25.742188 43.296875 25.65625 43.53125 25.613281L43.671875 25.601563C43.789063 25.601563 43.898438 25.625 44.015625 25.675781C44.191406 25.75 44.28125 25.90625 44.292969 26.140625C44.3125 26.429688 44.296875 26.726563 44.246094 27.027344C44.226563 27.097656 44.21875 27.179688 44.21875 27.273438L44.109375 27.9375L44 28.777344L43.878906 29.582031L43.847656 29.863281C43.816406 30.039063 43.789063 30.214844 43.769531 30.390625L43.675781 31.117188L43.644531 31.242188C43.644531 31.304688 43.636719 31.367188 43.613281 31.425781L43.613281 31.457031C43.605469 31.550781 43.609375 31.636719 43.628906 31.707031C43.683594 31.902344 43.820313 32 44.046875 32L44.949219 32C45.234375 31.992188 45.417969 31.835938 45.488281 31.535156C45.519531 31.390625 45.539063 31.25 45.550781 31.117188C45.5625 31.066406 45.566406 31.019531 45.566406 30.980469C45.597656 30.84375 45.617188 30.714844 45.628906 30.59375L45.671875 30.234375C45.695313 30.050781 45.722656 29.851563 45.75 29.644531L45.78125 29.414063C45.800781 29.34375 45.8125 29.261719 45.8125 29.167969L45.84375 28.996094L45.890625 28.65625C45.910156 28.574219 45.925781 28.488281 45.9375 28.402344C45.945313 28.3125 45.953125 28.226563 45.953125 28.144531L46.105469 27.105469L46.183594 26.390625C46.195313 26.339844 46.214844 26.292969 46.246094 26.253906C46.273438 26.234375 46.296875 26.210938 46.308594 26.191406C46.523438 25.964844 46.746094 25.804688 46.972656 25.714844L47.066406 25.667969C47.179688 25.625 47.292969 25.605469 47.40625 25.605469C47.488281 25.605469 47.570313 25.613281 47.65625 25.636719C47.777344 25.65625 47.882813 25.726563 47.964844 25.851563C48.046875 25.976563 48.078125 26.125 48.058594 26.300781C48.039063 26.578125 48.011719 26.851563 47.980469 27.121094L47.96875 27.152344C47.957031 27.285156 47.933594 27.425781 47.90625 27.570313C47.90625 27.652344 47.894531 27.742188 47.875 27.832031C47.84375 27.96875 47.820313 28.113281 47.8125 28.265625L47.78125 28.453125L47.671875 29.277344L47.625 29.554688C47.605469 29.742188 47.578125 29.925781 47.546875 30.109375C47.539063 30.253906 47.515625 30.40625 47.484375 30.5625C47.484375 30.652344 47.476563 30.746094 47.453125 30.839844C47.453125 30.902344 47.445313 30.96875 47.425781 31.042969L47.425781 31.089844L47.394531 31.226563L47.347656 31.582031C47.347656 31.621094 47.363281 31.683594 47.394531 31.765625C47.464844 31.921875 47.59375 32 47.78125 32L48.601563 32C48.707031 32 48.800781 31.988281 48.886719 31.96875C49.03125 31.929688 49.132813 31.835938 49.191406 31.691406C49.234375 31.578125 49.261719 31.460938 49.269531 31.335938L49.285156 31.304688L49.394531 30.4375L49.453125 30.09375L49.515625 29.566406L49.609375 28.917969L49.625 28.75L49.65625 28.59375L49.6875 28.34375L49.75 28.003906C49.75 27.921875 49.753906 27.835938 49.765625 27.75C49.777344 27.660156 49.789063 27.574219 49.8125 27.492188L49.84375 27.261719L49.890625 26.996094L49.949219 26.453125L49.949219 26.40625C49.988281 26.140625 50.007813 25.878906 49.996094 25.621094C49.976563 25.320313 49.90625 25.050781 49.785156 24.8125C49.667969 24.574219 49.496094 24.394531 49.265625 24.269531C49.0625 24.167969 48.832031 24.101563 48.585938 24.070313C48.421875 24.050781 48.265625 24.039063 48.121094 24.039063C47.976563 24.039063 47.84375 24.050781 47.71875 24.070313C47.265625 24.144531 46.792969 24.390625 46.308594 24.8125C46.257813 24.84375 46.214844 24.882813 46.183594 24.921875L46.09375 25.015625L46.03125 24.859375C45.882813 24.589844 45.6875 24.390625 45.4375 24.253906C45.222656 24.140625 45.015625 24.082031 44.820313 24.070313C44.808594 24.058594 44.699219 24.054688 44.496094 24.054688C44.359375 24.054688 44.203125 24.066406 44.015625 24.085938C43.828125 24.105469 43.636719 24.152344 43.441406 24.222656C43.296875 24.277344 43.164063 24.34375 43.039063 24.425781C42.914063 24.507813 42.800781 24.589844 42.699219 24.671875L42.527344 24.828125C42.515625 24.828125 42.503906 24.839844 42.484375 24.859375L42.523438 24.453125C42.523438 24.402344 42.527344 24.351563 42.535156 24.300781C42.535156 24.15625 42.496094 24.035156 42.40625 23.941406C42.316406 23.851563 42.207031 23.800781 42.074219 23.789063L42.058594 23.789063L42.058594 23.804688L42.042969 23.804688L42.042969 23.789063L39.578125 23.789063C39.605469 23.519531 39.664063 23.304688 39.746094 23.140625C39.847656 22.921875 40 22.765625 40.195313 22.671875C40.339844 22.601563 40.480469 22.558594 40.613281 22.546875L40.765625 22.546875C40.859375 22.546875 40.945313 22.554688 41.015625 22.5625L41.542969 22.5625C41.613281 22.5625 41.683594 22.539063 41.746094 22.484375C41.804688 22.433594 41.839844 22.371094 41.851563 22.300781L41.867188 22.222656C41.886719 22.132813 41.902344 22.039063 41.910156 21.945313C41.941406 21.800781 41.960938 21.664063 41.96875 21.53125C41.972656 21.402344 41.9375 21.300781 41.863281 21.21875C41.792969 21.136719 41.710938 21.085938 41.617188 21.078125C41.441406 21.046875 41.261719 21.027344 41.078125 21.015625 Z M 6 22C6.59375 21.988281 7.058594 22.179688 7.40625 22.566406C7.75 22.953125 7.925781 23.59375 7.9375 24.492188C7.925781 25.246094 7.75 25.851563 7.40625 26.304688C7.058594 26.757813 6.59375 26.988281 6 27C5.339844 26.988281 4.832031 26.757813 4.472656 26.296875C4.113281 25.839844 3.9375 25.238281 3.9375 24.492188C3.9375 23.625 4.113281 22.988281 4.472656 22.589844C4.832031 22.1875 5.339844 21.988281 6 22Z" fill="#999999" />
</svg>