<svg xmlns="http://www.w3.org/2000/svg" xmlns:xlink="http://www.w3.org/1999/xlink" viewBox="0 0 26 26" fill="#999999">
  <path d="M13 4.5C12.945313 4.5 12.894531 4.515625 12.84375 4.53125L0.84375 8.53125C0.640625 8.597656 0.5 8.785156 0.5 9C0.5 9.214844 0.640625 9.402344 0.84375 9.46875L3.59375 10.40625C3.566406 10.441406 3.527344 10.464844 3.5 10.5C2.902344 11.257813 2.59375 12.300781 2.46875 13.8125C2.019531 14.011719 1.71875 14.476563 1.71875 15C1.71875 15.523438 2.019531 15.988281 2.46875 16.1875C2.070313 19.574219 0.0625 20.710938 0.0625 21C0.0625 21.148438 1.625 22 2 22C2.578125 22 3.96875 21.03125 3.96875 18.90625C3.96875 17.636719 3.839844 16.703125 3.71875 16.03125C4.050781 15.800781 4.28125 15.4375 4.28125 15C4.28125 14.539063 4.019531 14.164063 3.65625 13.9375C3.769531 12.5625 4.03125 11.765625 4.4375 11.25C4.90625 10.652344 5.667969 10.289063 6.8125 9.8125C6.867188 9.789063 6.953125 9.75 7.03125 9.71875C7.046875 9.714844 7.046875 9.691406 7.0625 9.6875C7.261719 9.609375 7.46875 9.53125 7.625 9.46875C8.375 9.160156 8.992188 8.941406 9.5625 8.71875C9.734375 8.652344 9.839844 8.59375 10 8.53125C10.515625 8.332031 10.886719 8.195313 11.25 8.0625C11.386719 8.011719 11.472656 7.980469 11.59375 7.9375C12.417969 7.640625 12.769531 7.535156 12.78125 7.53125C13.089844 7.425781 13.425781 7.589844 13.53125 7.90625C13.636719 8.21875 13.472656 8.550781 13.15625 8.65625C13.132813 8.664063 11.746094 9.082031 8.09375 10.59375C7.859375 10.691406 7.621094 10.757813 7.40625 10.84375C6.972656 11.015625 6.613281 11.175781 6.3125 11.3125L12.84375 13.46875C12.894531 13.484375 12.945313 13.5 13 13.5C13.054688 13.5 13.105469 13.484375 13.15625 13.46875L25.15625 9.46875C25.359375 9.402344 25.5 9.214844 25.5 9C25.5 8.785156 25.359375 8.597656 25.15625 8.53125L13.15625 4.53125C13.105469 4.515625 13.054688 4.5 13 4.5 Z M 21 12.25L13.46875 14.75C13.3125 14.800781 13.160156 14.8125 13 14.8125C12.839844 14.8125 12.6875 14.800781 12.53125 14.75L5.25 12.3125C5.117188 12.65625 5.0625 13.105469 5.0625 13.75C5.539063 14.023438 6 14.578125 6 15.53125C6 16.117188 5.6875 16.535156 5.4375 16.8125C6.515625 18.066406 9.492188 18.96875 13 18.96875C17.417969 18.96875 21 17.542969 21 15.78125Z" fill="#999999" />
</svg>