<svg xmlns="http://www.w3.org/2000/svg" xmlns:xlink="http://www.w3.org/1999/xlink" viewBox="0 0 50 50" fill="#999999">
  <path d="M22.03125 0.40625C18.351563 0.472656 15.632813 1.570313 14 3.71875C12.066406 6.265625 11.714844 10.144531 12.9375 15.21875C12.488281 15.769531 12.148438 16.605469 12.28125 17.71875C12.546875 19.921875 13.402344 20.828125 14.125 21.1875C14.46875 22.917969 15.421875 24.863281 16.34375 25.78125L16.34375 26.25C16.351563 27.265625 16.378906 28.144531 16.28125 29.28125C15.667969 30.6875 13.632813 31.511719 11.28125 32.4375C7.375 33.972656 2.488281 35.871094 2.125 41.9375L2.0625 43L34.46875 43L31.28125 40.21875L29.78125 38.90625L31.09375 37.375L33.71875 34.375L35.21875 35.6875L39.78125 39.65625L40.96875 38.15625C39.332031 34.324219 33.238281 32.632813 30.25 31.21875C29.535156 30.855469 28.921875 30.460938 28.5 30C28.320313 29.804688 28.179688 29.570313 28.0625 29.28125C27.964844 28.144531 27.957031 27.257813 27.96875 26.25L27.96875 25.78125C28.863281 24.867188 29.785156 22.917969 30.125 21.1875C30.847656 20.824219 31.703125 19.921875 31.96875 17.71875C32.101563 16.628906 31.777344 15.800781 31.34375 15.25C31.921875 13.269531 33.113281 8.113281 31.0625 4.8125C30.207031 3.429688 28.902344 2.558594 27.1875 2.21875C26.246094 1.027344 24.460938 0.40625 22.03125 0.40625 Z M 48.4375 31.90625L40.0625 42.5625L33.90625 37.1875L32.59375 38.6875L40.34375 45.4375L50 33.125Z" fill="#999999" />
</svg>