<svg xmlns="http://www.w3.org/2000/svg" xmlns:xlink="http://www.w3.org/1999/xlink" viewBox="0 0 26 26" fill="#999999">
  <path d="M13 2C11.664063 2 10.445313 2.398438 9.53125 3.09375C8.890625 3.582031 8.425781 4.246094 8.1875 5L3 5C1.355469 5 0 6.355469 0 8L0 14.8125C-0.0078125 14.875 -0.0078125 14.9375 0 15L0 23C0 24.644531 1.355469 26 3 26L23 26C24.644531 26 26 24.644531 26 23L26 8C26 6.355469 24.644531 5 23 5L17.8125 5C17.574219 4.246094 17.109375 3.582031 16.46875 3.09375C15.554688 2.398438 14.335938 2 13 2 Z M 13 4C13.941406 4 14.734375 4.296875 15.25 4.6875C15.378906 4.785156 15.5 4.894531 15.59375 5L10.40625 5C10.5 4.894531 10.621094 4.785156 10.75 4.6875C11.265625 4.296875 12.058594 4 13 4 Z M 3 7L23 7C23.566406 7 24 7.433594 24 8L24 14.84375C24 14.875 24 14.90625 24 14.9375L24 15C24 15.566406 23.566406 16 23 16L15 16C15 15.449219 14.550781 15 14 15L12 15C11.449219 15 11 15.449219 11 16L3 16C2.433594 16 2 15.566406 2 15C2.007813 14.9375 2.007813 14.875 2 14.8125L2 8C2 7.433594 2.433594 7 3 7 Z M 11 18L15 18L15 19C15 19.550781 14.550781 20 14 20L12 20C11.449219 20 11 19.550781 11 19Z" fill="#999999" />
</svg>