<svg xmlns="http://www.w3.org/2000/svg" xmlns:xlink="http://www.w3.org/1999/xlink" width="512" height="512" viewBox="0 0 512 512"><path fill="#A0BF19" d="M7.9,256C7.9,119,119,7.9,256,7.9C393,7.9,504.1,119,504.1,256c0,137-111.1,248.1-248.1,248.1C119,504.1,7.9,393,7.9,256z"/><path fill="#FCC288" d="M400.6,255.2c-3.1-3.9-5.5-5.5-6.3-9.4c6.3-3.1,12.6-15.7,12.6-19.7c-0.8-26.7-26-32.2-26-32.2s0,0-75.5,0c-5.5-0.8-1.6-15.7,1.6-21.2c13.4-23.6,21.2-44.8,21.2-55.9c-4.7-54.3-41.7-44.8-43.3-39.3c-0.8,55.1-13.4,67.6-27.5,77.1c-14.2,9.4-15.7,20.4-32.2,58.2c-16.5,37.8-47.2,25.2-47.2,25.2s0.8,11.8,0.8,122.7c92.8,17.3,145.5,15,169.9,12.6c24.4-2.3,32.3-18.9,32.3-27.5c0-10.2,3.1-15.7,7.1-18.1c17.3-14.2,11.8-18.9,7.1-29.1c-4.7-10.2-3.1-13.4,4.7-20.5C409.1,270.1,403.8,259.1,400.6,255.2z"/><path fill="#5C524A" d="M174.1,233.9h-47.9c-2.6,0-4.7,2.1-4.7,4.8v125c0,2.6,2.1,4.8,4.7,4.8h47.9c2.6,0,4.7-2.1,4.7-4.8v-125C178.8,236,176.7,233.9,174.1,233.9z"/></svg>