<svg xmlns="http://www.w3.org/2000/svg" xmlns:xlink="http://www.w3.org/1999/xlink" viewBox="0 0 30 30" fill="#313131">
  <path d="M20 4C18.706841 4 17.604859 4.84267 17.1875 6L4 6 A 1.0001 1.0001 0 1 0 4 8L17.1875 8C17.604859 9.15733 18.706841 10 20 10C21.293159 10 22.395141 9.15733 22.8125 8L26 8 A 1.0001 1.0001 0 1 0 26 6L22.8125 6C22.395141 4.84267 21.293159 4 20 4 z M 20 6C20.54383 6 20.958426 6.4088115 20.988281 6.9433594 A 1.0001 1.0001 0 0 0 20.988281 7.0585938C20.957487 7.5921595 20.543157 8 20 8C19.45617 8 19.041574 7.5911885 19.011719 7.0566406 A 1.0001 1.0001 0 0 0 19.011719 6.9414062C19.042513 6.4078405 19.456843 6 20 6 z M 12 12C10.706841 12 9.6048586 12.84267 9.1875 14L4 14 A 1.0001 1.0001 0 1 0 4 16L9.1875 16C9.6048586 17.15733 10.706841 18 12 18C13.293159 18 14.395141 17.15733 14.8125 16L26 16 A 1.0001 1.0001 0 1 0 26 14L14.8125 14C14.395141 12.84267 13.293159 12 12 12 z M 12 14C12.54383 14 12.958426 14.408812 12.988281 14.943359 A 1.0001 1.0001 0 0 0 12.988281 15.058594C12.957487 15.592159 12.543157 16 12 16C11.45617 16 11.041574 15.591188 11.011719 15.056641 A 1.0001 1.0001 0 0 0 11.011719 14.941406C11.042513 14.407841 11.456843 14 12 14 z M 16 20C14.706841 20 13.604859 20.84267 13.1875 22L4 22 A 1.0001 1.0001 0 1 0 4 24L13.1875 24C13.604859 25.15733 14.706841 26 16 26C17.293159 26 18.395141 25.15733 18.8125 24L26 24 A 1.0001 1.0001 0 1 0 26 22L18.8125 22C18.395141 20.84267 17.293159 20 16 20 z M 16 22C16.54383 22 16.958426 22.408812 16.988281 22.943359 A 1.0001 1.0001 0 0 0 16.988281 23.058594C16.957487 23.592159 16.543157 24 16 24C15.45617 24 15.041574 23.591188 15.011719 23.056641 A 1.0001 1.0001 0 0 0 15.011719 22.941406C15.042513 22.407841 15.456843 22 16 22 z" fill="#313131" />
</svg>