<svg xmlns="http://www.w3.org/2000/svg" xmlns:xlink="http://www.w3.org/1999/xlink" viewBox="0 0 48 48"><path fill="#ffca28" d="M24 4A20 20 0 1 0 24 44A20 20 0 1 0 24 4Z"/><path fill="#5d4037" d="M28,34.5c0,0.593-0.038,1.088-0.122,1.5l-7.757,0C20.038,35.588,20,35.093,20,34.5 c0-3.038,1.791-5.5,4-5.5S28,31.462,28,34.5z"/><path fill="#e53935" d="M24,35c-1.627,0-2.996,0.466-3.875,1c0.5,2,2.077,2,3.875,2s3.375,0,3.875-2 C26.996,35.466,25.627,35,24,35z"/><path fill="#6d4c41" d="M21,23l-8,1c0-2.531,1.275-4.35,3-4.857L17,20l2.003-0.463C20.197,20.229,21,21.5,21,23z"/><path fill="#fff" d="M17.5,21c0.811,0,1.467-0.644,1.495-1.448C18.406,19.21,17.73,19,17,19 c-0.33,0-0.646,0.058-0.953,0.144C16.019,19.259,16,19.377,16,19.5C16,20.328,16.672,21,17.5,21z"/><path fill="#6d4c41" d="M27,23l8,1c0-2.531-1.275-4.35-3-4.857L31,20l-2.003-0.463C27.803,20.229,27,21.5,27,23z"/><path fill="#fff" d="M30.5,21c-0.811,0-1.467-0.644-1.495-1.448C29.594,19.21,30.27,19,31,19 c0.33,0,0.646,0.058,0.953,0.144C31.981,19.259,32,19.377,32,19.5C32,20.329,31.328,21,30.5,21z"/></svg>