<svg xmlns="http://www.w3.org/2000/svg" xmlns:xlink="http://www.w3.org/1999/xlink" viewBox="0 0 50 50" fill="#5E5E5E">
  <path d="M23 3C22.449219 3 22 3.449219 22 4L22 11.75L17 21.75L17 20C17 19.449219 16.550781 19 16 19L3 19C2.714844 19 2.441406 19.128906 2.25 19.34375C2.058594 19.558594 1.964844 19.839844 2 20.125L5 44.125C5.0625 44.625 5.496094 45 6 45L16 45C16.550781 45 17 44.554688 17 44L17 43L18.15625 43C18.570313 44.164063 19.695313 45 21 45L40 45C42.207031 45 44 43.207031 44 41C44 40.175781 43.738281 39.417969 43.3125 38.78125C44.871094 38.234375 46 36.742188 46 35C46 34.019531 45.648438 33.132813 45.0625 32.4375C46.222656 31.738281 47 30.453125 47 29C47 28.019531 46.648438 27.132813 46.0625 26.4375C47.222656 25.738281 48 24.453125 48 23C48 20.792969 46.207031 19 44 19L29.375 19C29.984375 17.070313 31 13.617188 31 12C31 8.234375 28.242188 3 25.53125 3 Z M 24 5L25.53125 5C26.449219 5 29 8.480469 29 12C29 13.566406 27.601563 18.082031 27.0625 19.6875C26.957031 19.992188 27 20.332031 27.1875 20.59375C27.375 20.855469 27.679688 21 28 21L44 21C45.101563 21 46 21.898438 46 23C46 24.101563 45.101563 25 44 25L43 25C42.445313 25 42 25.445313 42 26C42 26.554688 42.445313 27 43 27C44.101563 27 45 27.898438 45 29C45 30.101563 44.101563 31 43 31L42 31C41.445313 31 41 31.445313 41 32C41 32.554688 41.445313 33 42 33C43.101563 33 44 33.898438 44 35C44 36.101563 43.101563 37 42 37L40 37C39.445313 37 39 37.445313 39 38C39 38.554688 39.445313 39 40 39C41.101563 39 42 39.898438 42 41C42 42.101563 41.101563 43 40 43L21 43C20.449219 43 20 42.550781 20 42C20 41.445313 19.550781 41 19 41L17 41L17 24L17.5 24C17.878906 24 18.234375 23.777344 18.40625 23.4375L23.90625 12.4375C23.976563 12.300781 24 12.15625 24 12 Z M 4.125 21L15 21L15 43L6.875 43 Z M 11.5 38C10.671875 38 10 38.671875 10 39.5C10 40.328125 10.671875 41 11.5 41C12.328125 41 13 40.328125 13 39.5C13 38.671875 12.328125 38 11.5 38Z" fill="#5E5E5E" />
</svg>