<svg xmlns="http://www.w3.org/2000/svg" xmlns:xlink="http://www.w3.org/1999/xlink" viewBox="0 0 24 24" fill="#999999">
  <path d="M12 3C9.8027056 3 8 4.8027056 8 7C8 8.1971294 8.5462008 9.264839 9.3886719 10L6 10C4.895 10 4 10.895 4 12L4.7773438 19L3 19L3 21L21 21L21 19L19.222656 19L20 12C20 10.895 19.105 10 18 10L14.611328 10C15.453799 9.264839 16 8.1971294 16 7C16 4.8027056 14.197294 3 12 3 z M 12 5C13.116414 5 14 5.8835859 14 7C14 8.1164141 13.116414 9 12 9C10.883586 9 10 8.1164141 10 7C10 5.8835859 10.883586 5 12 5 z M 12 13C12.552 13 13 13.448 13 14C13 14.552 12.552 15 12 15C11.448 15 11 14.552 11 14C11 13.448 11.448 13 12 13 z" fill="#999999" />
</svg>