<svg xmlns="http://www.w3.org/2000/svg" xmlns:xlink="http://www.w3.org/1999/xlink" viewBox="0 0 48 48"><path fill="#ffca28" d="M44,24c0,11-9,20-20,20S4,35,4,24S13,4,24,4S44,13,44,24z"/><path fill="#b76c09" d="M24,37c-2.8,0-5-2.2-5-5h2c0,1.7,1.3,3,3,3s3-1.3,3-3h2C29,34.8,26.8,37,24,37z"/><path fill="#f44336" d="M19 19c-1 0-2 .5-2.5 1.3C16 19.5 15 19 14 19c-1.7 0-3 1.3-3 3 0 3 5.5 6 5.5 6s5.5-3 5.5-6C22 20.3 20.7 19 19 19M34 19c-1 0-2 .5-2.5 1.3C31 19.5 30 19 29 19c-1.7 0-3 1.3-3 3 0 3 5.5 6 5.5 6s5.5-3 5.5-6C37 20.3 35.7 19 34 19"/><path fill="#fff" d="M15 21.5c0 .8-.7 1.5-1.5 1.5S12 22.3 12 21.5s.7-1.5 1.5-1.5S15 20.7 15 21.5zM30 21.5c0 .8-.7 1.5-1.5 1.5S27 22.3 27 21.5s.7-1.5 1.5-1.5S30 20.7 30 21.5z"/></svg>